<?xml version="1.0" encoding="UTF-8" standalone="no"?>
<!-- Created with Inkscape (http://www.inkscape.org/) -->

<svg
   xmlns:dc="http://purl.org/dc/elements/1.1/"
   xmlns:cc="http://creativecommons.org/ns#"
   xmlns:rdf="http://www.w3.org/1999/02/22-rdf-syntax-ns#"
   xmlns:svg="http://www.w3.org/2000/svg"
   xmlns="http://www.w3.org/2000/svg"
   xmlns:sodipodi="http://sodipodi.sourceforge.net/DTD/sodipodi-0.dtd"
   xmlns:inkscape="http://www.inkscape.org/namespaces/inkscape"
   width="1.1061702in"
   height="1.1127657in"
   viewBox="0 0 99.555319 100.14891"
   id="svg5761"
   version="1.1"
   inkscape:version="0.91 r"
   sodipodi:docname="tree_like.svg">
  <defs
     id="defs5763">
    <marker
       inkscape:stockid="Arrow1Mstart"
       orient="auto"
       refY="0"
       refX="0"
       id="Arrow1Mstart"
       style="overflow:visible"
       inkscape:isstock="true">
      <path
         id="path5006"
         d="M 0,0 5,-5 -12.5,0 5,5 0,0 Z"
         style="fill:#000000;fill-opacity:1;fill-rule:evenodd;stroke:#000000;stroke-width:1pt;stroke-opacity:1"
         transform="matrix(0.4,0,0,0.4,4,0)"
         inkscape:connector-curvature="0" />
    </marker>
    <marker
       inkscape:stockid="Club"
       orient="auto"
       refY="0"
       refX="0"
       id="Club"
       style="overflow:visible"
       inkscape:isstock="true">
      <path
         id="path5229"
         d="m -1.5971367,-7.0977635 c -1.8892507,0 -3.426382,1.5371314 -3.426382,3.4263822 0,0.6566798 0.2383531,1.2269257 0.5594092,1.7481542 -0.038751,0.032111 -0.079672,0.058463 -0.1165436,0.093235 -0.6224234,-0.8549928 -1.5893983,-1.4451409 -2.7271199,-1.4451409 -1.8892515,-1e-7 -3.426382,1.5371314 -3.426382,3.42638214 0,1.88925076 1.5371305,3.42638216 3.426382,3.42638216 0.9934462,0 1.868619,-0.4420611 2.4940326,-1.1188187 -0.124687,0.3548915 -0.2097783,0.7214874 -0.2097783,1.1188187 0,1.8892506 1.5371313,3.4263822 3.426382,3.4263822 1.88925064,0 3.4263821,-1.5371316 3.4263821,-3.4263822 0,-0.7933959 -0.3155586,-1.4938285 -0.7691878,-2.0744763 C 2.4152718,1.7663868 3.7718375,2.2973711 4.7661444,3.8340272 4.0279463,3.0958289 3.5540908,1.7534117 3.5540908,-0.05852936 l -0.6293354,-0.04661745 0.5827179,-0.0233087 c 0,-1.81194109 0.4505466,-3.15435829 1.188745,-3.89255659 -0.9590906,1.4822308 -2.2571634,2.0263625 -3.5662345,2.3075635 0.4041964,-0.5619092 0.6992616,-1.213407 0.6992616,-1.9579327 0,-1.8892506 -1.53713146,-3.4263822 -3.4263821,-3.4263822 z"
         style="fill:#000000;fill-opacity:1;fill-rule:evenodd;stroke:#000000;stroke-width:0.74587913pt;stroke-opacity:1"
         transform="scale(0.6,0.6)"
         inkscape:connector-curvature="0" />
    </marker>
    <marker
       inkscape:stockid="Arrow1Mend"
       orient="auto"
       refY="0"
       refX="0"
       id="Arrow1Mend"
       style="overflow:visible"
       inkscape:isstock="true">
      <path
         id="path5009"
         d="M 0,0 5,-5 -12.5,0 5,5 0,0 Z"
         style="fill:#000000;fill-opacity:1;fill-rule:evenodd;stroke:#000000;stroke-width:1pt;stroke-opacity:1"
         transform="matrix(-0.4,0,0,-0.4,-4,0)"
         inkscape:connector-curvature="0" />
    </marker>
    <marker
       inkscape:stockid="Arrow2Lstart"
       orient="auto"
       refY="0"
       refX="0"
       id="Arrow2Lstart"
       style="overflow:visible"
       inkscape:isstock="true">
      <path
         id="path5018"
         style="fill:#000000;fill-opacity:1;fill-rule:evenodd;stroke:#000000;stroke-width:0.625;stroke-linejoin:round;stroke-opacity:1"
         d="M 8.7185878,4.0337352 -2.2072895,0.01601326 8.7185884,-4.0017078 c -1.7454984,2.3720609 -1.7354408,5.6174519 -6e-7,8.035443 z"
         transform="matrix(1.1,0,0,1.1,1.1,0)"
         inkscape:connector-curvature="0" />
    </marker>
    <marker
       inkscape:stockid="Arrow1Lstart"
       orient="auto"
       refY="0"
       refX="0"
       id="Arrow1Lstart"
       style="overflow:visible"
       inkscape:isstock="true">
      <path
         id="path5000"
         d="M 0,0 5,-5 -12.5,0 5,5 0,0 Z"
         style="fill:#000000;fill-opacity:1;fill-rule:evenodd;stroke:#000000;stroke-width:1pt;stroke-opacity:1"
         transform="matrix(0.8,0,0,0.8,10,0)"
         inkscape:connector-curvature="0" />
    </marker>
    <marker
       inkscape:stockid="Arrow2Sstart"
       orient="auto"
       refY="0"
       refX="0"
       id="Arrow2Sstart"
       style="overflow:visible"
       inkscape:isstock="true">
      <path
         id="path5030"
         style="fill:#000000;fill-opacity:1;fill-rule:evenodd;stroke:#000000;stroke-width:0.625;stroke-linejoin:round;stroke-opacity:1"
         d="M 8.7185878,4.0337352 -2.2072895,0.01601326 8.7185884,-4.0017078 c -1.7454984,2.3720609 -1.7354408,5.6174519 -6e-7,8.035443 z"
         transform="matrix(0.3,0,0,0.3,-0.69,0)"
         inkscape:connector-curvature="0" />
    </marker>
    <marker
       inkscape:stockid="Arrow2Mstart"
       orient="auto"
       refY="0"
       refX="0"
       id="Arrow2Mstart"
       style="overflow:visible"
       inkscape:isstock="true">
      <path
         id="path5024"
         style="fill:#000000;fill-opacity:1;fill-rule:evenodd;stroke:#000000;stroke-width:0.625;stroke-linejoin:round;stroke-opacity:1"
         d="M 8.7185878,4.0337352 -2.2072895,0.01601326 8.7185884,-4.0017078 c -1.7454984,2.3720609 -1.7354408,5.6174519 -6e-7,8.035443 z"
         transform="scale(0.6,0.6)"
         inkscape:connector-curvature="0" />
    </marker>
    <inkscape:path-effect
       effect="knot"
       id="path-effect5771"
       is_visible="true"
       interruption_width="7"
       prop_to_stroke_width="true"
       add_stroke_width="true"
       add_other_stroke_width="true"
       switcher_size="15"
       crossing_points_vector="295.17331 | 974.56407 | 0 | 0 | 0 | 3 | 0.29652108 | 2.6910483 | -1 | 272.28068 | 997.51159 | 0 | 0 | 1 | 10 | 0.58031935 | 7.2140982 | -1 | 302.28174 | 987.05363 | 0 | 0 | 2 | 11 | 2.2869074 | 8.0941586 | 1 | 240.09383 | 957.8862 | 0 | 0 | 6 | 7 | 3.6557099 | 5.5179217 | 1 | 257.83765 | 959.42925 | 0 | 0 | 5 | 12 | 3.4199225 | 11.396907 | 1 | 278.21348 | 962.0195 | 0 | 0 | 4 | 15 | 3.1549776 | 14.362894 | 1 | 229.48798 | 988.60797 | 0 | 0 | 8 | 13 | 6.1207066 | 12.380145 | 1 | 248.03289 | 996.34798 | 0 | 0 | 9 | 14 | 6.6230562 | 13.583719 | 1" />
  </defs>
  <sodipodi:namedview
     id="base"
     pagecolor="#ffffff"
     bordercolor="#666666"
     borderopacity="1.0"
     inkscape:pageopacity="0.0"
     inkscape:pageshadow="2"
     inkscape:zoom="4.0473066"
     inkscape:cx="49.546533"
     inkscape:cy="57.143456"
     inkscape:document-units="in"
     inkscape:current-layer="layer1"
     showgrid="false"
     units="in"
     fit-margin-top="0"
     fit-margin-left="0"
     fit-margin-right="0"
     fit-margin-bottom="0"
     inkscape:window-width="1920"
     inkscape:window-height="1004"
     inkscape:window-x="-4"
     inkscape:window-y="0"
     inkscape:window-maximized="1" />
  <metadata
     id="metadata5766">
    <rdf:RDF>
      <cc:Work
         rdf:about="">
        <dc:format>image/svg+xml</dc:format>
        <dc:type
           rdf:resource="http://purl.org/dc/dcmitype/StillImage" />
        <dc:title></dc:title>
      </cc:Work>
    </rdf:RDF>
  </metadata>
  <g
     inkscape:label="Layer 1"
     inkscape:groupmode="layer"
     id="layer1"
     transform="translate(-218.95043,-930.17227)">
    <path
       style="fill:none;fill-rule:evenodd;stroke:#000000;stroke-width:0.98624998;stroke-linecap:butt;stroke-linejoin:miter;stroke-miterlimit:3.70000005;stroke-dasharray:none;stroke-opacity:1;marker-start:url(#Arrow1Mstart)"
       inkscape:path-effect="#path-effect5771"
       inkscape:original-d="m 283.68631,973.24084 c -3.8768,-21.73087 -55.67597,-1.04584 -62.44032,-22.05783 -1.51098,-4.69351 3.76788,-13.67385 8.45352,-12.13865 18.39999,6.02855 16.91133,51.91578 -1.44728,58.06919 -3.95723,1.32638 -10.20223,-6.39303 -7.7923,-9.80055 10.25795,-14.50422 49.83851,-0.38199 50.38353,17.3747 0.18588,6.0561 -12.16901,10.8897 -16.78794,6.9685 -3.85225,-3.2704 -0.65854,-11.83423 3.46223,-14.75902 13.20966,-9.37579 39.33417,-8.33959 48.32423,5.13552 5.22393,7.8301 1.05239,29.5562 -8.02702,27.0734 -24.76413,-6.7719 27.41026,-50.54733 18.72863,-74.70826 -2.71671,-7.56059 -11.84138,-17.02389 -19.39991,-14.30143 -7.711,2.77738 -11.50336,17.83793 -5.94263,23.85885 3.91302,4.23684 15.52142,2.71968 17.06802,-2.83645 4.04357,-14.52644 -19.79891,-33.2685 -34.37449,-29.40585 -13.42514,3.55777 -25.57631,31.39868 -14.09263,39.21004 8.35292,5.68177 14.42431,-25.71645 22.76086,-20.01069 9.78442,6.69672 -21.91108,26.56837 -12.22315,33.40394 4.72372,3.33294 14.36199,-5.38409 13.34665,-11.07541 z"
       id="path5769"
       d="m 272.38037,958.79728 c 3.21271,-5.61741 6.47338,-10.42355 10.18244,-7.88497 9.78442,6.69672 -21.91108,26.56837 -12.22315,33.40394 4.72372,3.33294 14.36199,-5.38409 13.34665,-11.07541 -0.34648,-1.94212 -1.07572,-3.54546 -2.12138,-4.87005 m -7.68646,-4.61543 c -4.02675,-1.15933 -8.94745,-1.54287 -14.1549,-1.70001 m -8.90724,-0.14746 c -1.2649,-0.018 -2.52682,-0.0405 -3.77767,-0.0749 m -8.96645,-0.58475 c -8.13186,-0.97856 -14.70123,-3.46441 -16.82622,-10.06524 -1.51098,-4.69351 3.76788,-13.67385 8.45352,-12.13865 11.44476,3.74975 15.19496,22.92008 11.97704,38.35789 m -2.72029,8.57116 c -2.43747,5.41747 -6.02217,9.57088 -10.70403,11.14014 -3.95723,1.32638 -10.20223,-6.39303 -7.7923,-9.80055 7.04467,-9.9608 27.91871,-6.42056 40.48149,2.52603 m 7.06452,6.91027 c 1.72068,2.495 2.75263,5.1726 2.83752,7.9384 0.18588,6.0561 -12.16901,10.8897 -16.78794,6.9685 -3.85225,-3.2704 -0.65854,-11.83423 3.46223,-14.75902 10.35678,-7.35091 28.65237,-8.30152 40.4046,-1.87498 m 6.94424,5.6789 c 0.34415,0.4295 0.66968,0.8734 0.97539,1.3316 5.22393,7.8301 1.05239,29.5562 -8.02702,27.0734 -24.76413,-6.7719 27.41026,-50.54733 18.72863,-74.70826 -2.71671,-7.56059 -11.84138,-17.02389 -19.39991,-14.30143 -7.711,2.77738 -11.50336,17.83793 -5.94263,23.85885 3.91302,4.23684 15.52142,2.71968 17.06802,-2.83645 1.60183,-5.75454 -1.17246,-12.17063 -6.01322,-17.58095 m -8.83664,-7.34882 c -6.40909,-3.95726 -13.70541,-6.01822 -19.52463,-4.47608 -13.42514,3.55777 -25.57631,31.39868 -14.09263,39.21004 2.78329,1.89323 5.31326,-0.33052 7.75812,-3.92672"
       inkscape:connector-curvature="0"
       sodipodi:nodetypes="aaaaaaaaaaaaaaaaaaa" />
  </g>
</svg>
