<?xml version="1.0" encoding="UTF-8" standalone="no"?>
<!-- Created with Inkscape (http://www.inkscape.org/) -->

<svg
   xmlns:dc="http://purl.org/dc/elements/1.1/"
   xmlns:cc="http://creativecommons.org/ns#"
   xmlns:rdf="http://www.w3.org/1999/02/22-rdf-syntax-ns#"
   xmlns:svg="http://www.w3.org/2000/svg"
   xmlns="http://www.w3.org/2000/svg"
   xmlns:sodipodi="http://sodipodi.sourceforge.net/DTD/sodipodi-0.dtd"
   xmlns:inkscape="http://www.inkscape.org/namespaces/inkscape"
   width="1.1061702in"
   height="1.1127657in"
   viewBox="0 0 99.555319 100.14891"
   id="svg5761"
   version="1.1"
   inkscape:version="0.91 r13725"
   sodipodi:docname="6-tangle.svg">
  <defs
     id="defs5763">
    <inkscape:path-effect
       effect="knot"
       id="path-effect3407"
       is_visible="true"
       interruption_width="3"
       prop_to_stroke_width="true"
       add_stroke_width="true"
       add_other_stroke_width="true"
       switcher_size="15"
       crossing_points_vector="254.88528 | 967.41323 | 0 | 2 | 0 | 3 | 0.84725948 | 1.7308326 | 1 | 269.86989 | 972.74419 | 0 | 1 | 2 | 2 | 1.6507064 | 0.50028321 | 1 | 263.83646 | 970.08542 | 0 | 2 | 1 | 10 | 1.2239892 | 4.5781003 | 1 | 269.34821 | 987.3704 | 0 | 2 | 3 | 6 | 2.2159658 | 2.7931527 | 1 | 274.87847 | 970.91099 | 1 | 2 | 3 | 1 | 0.56652917 | 0.81493555 | 1 | 251.71521 | 979.38904 | 1 | 2 | 0 | 4 | 0.2601605 | 2.1477342 | -1 | 281.67417 | 968.42367 | 1 | 2 | 4 | 8 | 0.65641251 | 3.5470558 | 1 | 262.57862 | 975.41289 | 1 | 2 | 1 | 11 | 0.40384531 | 4.6722245 | 1 | 279.19953 | 979.55435 | 2 | 2 | 0 | 7 | 0.63844821 | 3.1760755 | 1 | 265.10449 | 964.88286 | 2 | 2 | 2 | 9 | 1.2429566 | 4.4800864 | 1 | 259.23056 | 986.71613 | 2 | 2 | 5 | 12 | 2.4923302 | 4.8773943 | 1" />
    <marker
       inkscape:stockid="Arrow1Mstart"
       orient="auto"
       refY="0"
       refX="0"
       id="Arrow1Mstart"
       style="overflow:visible"
       inkscape:isstock="true">
      <path
         id="path5006"
         d="M 0,0 5,-5 -12.5,0 5,5 0,0 Z"
         style="fill:#000000;fill-opacity:1;fill-rule:evenodd;stroke:#000000;stroke-width:1pt;stroke-opacity:1"
         transform="matrix(0.4,0,0,0.4,4,0)"
         inkscape:connector-curvature="0" />
    </marker>
    <marker
       inkscape:stockid="Club"
       orient="auto"
       refY="0"
       refX="0"
       id="Club"
       style="overflow:visible"
       inkscape:isstock="true">
      <path
         id="path5229"
         d="m -1.5971367,-7.0977635 c -1.8892507,0 -3.426382,1.5371314 -3.426382,3.4263822 0,0.6566798 0.2383531,1.2269257 0.5594092,1.7481542 -0.038751,0.032111 -0.079672,0.058463 -0.1165436,0.093235 -0.6224234,-0.8549928 -1.5893983,-1.4451409 -2.7271199,-1.4451409 -1.8892515,-1e-7 -3.426382,1.5371314 -3.426382,3.42638214 0,1.88925076 1.5371305,3.42638216 3.426382,3.42638216 0.9934462,0 1.868619,-0.4420611 2.4940326,-1.1188187 -0.124687,0.3548915 -0.2097783,0.7214874 -0.2097783,1.1188187 0,1.8892506 1.5371313,3.4263822 3.426382,3.4263822 1.88925064,0 3.4263821,-1.5371316 3.4263821,-3.4263822 0,-0.7933959 -0.3155586,-1.4938285 -0.7691878,-2.0744763 C 2.4152718,1.7663868 3.7718375,2.2973711 4.7661444,3.8340272 4.0279463,3.0958289 3.5540908,1.7534117 3.5540908,-0.05852936 l -0.6293354,-0.04661745 0.5827179,-0.0233087 c 0,-1.81194109 0.4505466,-3.15435829 1.188745,-3.89255659 -0.9590906,1.4822308 -2.2571634,2.0263625 -3.5662345,2.3075635 0.4041964,-0.5619092 0.6992616,-1.213407 0.6992616,-1.9579327 0,-1.8892506 -1.53713146,-3.4263822 -3.4263821,-3.4263822 z"
         style="fill:#000000;fill-opacity:1;fill-rule:evenodd;stroke:#000000;stroke-width:0.74587913pt;stroke-opacity:1"
         transform="scale(0.6,0.6)"
         inkscape:connector-curvature="0" />
    </marker>
    <marker
       inkscape:stockid="Arrow1Mend"
       orient="auto"
       refY="0"
       refX="0"
       id="Arrow1Mend"
       style="overflow:visible"
       inkscape:isstock="true">
      <path
         id="path5009"
         d="M 0,0 5,-5 -12.5,0 5,5 0,0 Z"
         style="fill:#000000;fill-opacity:1;fill-rule:evenodd;stroke:#000000;stroke-width:1pt;stroke-opacity:1"
         transform="matrix(-0.4,0,0,-0.4,-4,0)"
         inkscape:connector-curvature="0" />
    </marker>
    <marker
       inkscape:stockid="Arrow2Lstart"
       orient="auto"
       refY="0"
       refX="0"
       id="Arrow2Lstart"
       style="overflow:visible"
       inkscape:isstock="true">
      <path
         id="path5018"
         style="fill:#000000;fill-opacity:1;fill-rule:evenodd;stroke:#000000;stroke-width:0.625;stroke-linejoin:round;stroke-opacity:1"
         d="M 8.7185878,4.0337352 -2.2072895,0.01601326 8.7185884,-4.0017078 c -1.7454984,2.3720609 -1.7354408,5.6174519 -6e-7,8.035443 z"
         transform="matrix(1.1,0,0,1.1,1.1,0)"
         inkscape:connector-curvature="0" />
    </marker>
    <marker
       inkscape:stockid="Arrow1Lstart"
       orient="auto"
       refY="0"
       refX="0"
       id="Arrow1Lstart"
       style="overflow:visible"
       inkscape:isstock="true">
      <path
         id="path5000"
         d="M 0,0 5,-5 -12.5,0 5,5 0,0 Z"
         style="fill:#000000;fill-opacity:1;fill-rule:evenodd;stroke:#000000;stroke-width:1pt;stroke-opacity:1"
         transform="matrix(0.8,0,0,0.8,10,0)"
         inkscape:connector-curvature="0" />
    </marker>
    <marker
       inkscape:stockid="Arrow2Sstart"
       orient="auto"
       refY="0"
       refX="0"
       id="Arrow2Sstart"
       style="overflow:visible"
       inkscape:isstock="true">
      <path
         id="path5030"
         style="fill:#000000;fill-opacity:1;fill-rule:evenodd;stroke:#000000;stroke-width:0.625;stroke-linejoin:round;stroke-opacity:1"
         d="M 8.7185878,4.0337352 -2.2072895,0.01601326 8.7185884,-4.0017078 c -1.7454984,2.3720609 -1.7354408,5.6174519 -6e-7,8.035443 z"
         transform="matrix(0.3,0,0,0.3,-0.69,0)"
         inkscape:connector-curvature="0" />
    </marker>
    <marker
       inkscape:stockid="Arrow2Mstart"
       orient="auto"
       refY="0"
       refX="0"
       id="Arrow2Mstart"
       style="overflow:visible"
       inkscape:isstock="true">
      <path
         id="path5024"
         style="fill:#000000;fill-opacity:1;fill-rule:evenodd;stroke:#000000;stroke-width:0.625;stroke-linejoin:round;stroke-opacity:1"
         d="M 8.7185878,4.0337352 -2.2072895,0.01601326 8.7185884,-4.0017078 c -1.7454984,2.3720609 -1.7354408,5.6174519 -6e-7,8.035443 z"
         transform="scale(0.6,0.6)"
         inkscape:connector-curvature="0" />
    </marker>
    <inkscape:path-effect
       effect="knot"
       id="path-effect5771"
       is_visible="true"
       interruption_width="7"
       prop_to_stroke_width="true"
       add_stroke_width="true"
       add_other_stroke_width="true"
       switcher_size="15"
       crossing_points_vector="294.00653 | 973.01342 | 0 | 0 | 0 | 1 | 0.421918 | 2.7491081 | -1 | 249.88935 | 959.00668 | 0 | 0 | 3 | 6 | 3.5204856 | 5.6927446 | 1 | 229.93771 | 953.6207 | 0 | 0 | 4 | 11 | 3.843141 | 12.513988 | 1 | 275.94508 | 961.42686 | 0 | 0 | 2 | 15 | 3.1872397 | 15.316745 | 1 | 254.28311 | 938.70651 | 0 | 0 | 5 | 10 | 5.2099886 | 11.71056 | -1 | 227.4408 | 981.94472 | 0 | 0 | 7 | 12 | 6.5622251 | 13.282639 | 1 | 230.51654 | 997.30932 | 0 | 0 | 8 | 13 | 7.3134065 | 13.495357 | 1 | 260.81202 | 995.99473 | 0 | 0 | 9 | 14 | 7.9117577 | 14.560454 | 1" />
  </defs>
  <sodipodi:namedview
     id="base"
     pagecolor="#ffffff"
     bordercolor="#666666"
     borderopacity="1.0"
     inkscape:pageopacity="0.0"
     inkscape:pageshadow="2"
     inkscape:zoom="2.86"
     inkscape:cx="-16.052648"
     inkscape:cy="57.143456"
     inkscape:document-units="in"
     inkscape:current-layer="layer1"
     showgrid="false"
     units="in"
     fit-margin-top="0"
     fit-margin-left="0"
     fit-margin-right="0"
     fit-margin-bottom="0"
     inkscape:window-width="1920"
     inkscape:window-height="1176"
     inkscape:window-x="0"
     inkscape:window-y="24"
     inkscape:window-maximized="1" />
  <metadata
     id="metadata5766">
    <rdf:RDF>
      <cc:Work
         rdf:about="">
        <dc:format>image/svg+xml</dc:format>
        <dc:type
           rdf:resource="http://purl.org/dc/dcmitype/StillImage" />
        <dc:title></dc:title>
      </cc:Work>
    </rdf:RDF>
  </metadata>
  <g
     inkscape:label="Layer 1"
     inkscape:groupmode="layer"
     id="layer1"
     transform="translate(-218.95043,-930.17227)">
    <path
       id="path3404"
       style="fill:none;fill-rule:evenodd;stroke:#000000;stroke-width:1px;stroke-linecap:butt;stroke-linejoin:miter;stroke-opacity:1"
       d="m 234.13719,938.94856 c 0,0 9.88312,20.75455 17.78961,21.74286 5.20258,0.65032 11.58195,3.44025 14.91443,8.15861 m 2.02672,4.58259 c 0.27867,1.33785 0.33152,2.77443 0.10722,4.30717 -0.18093,1.23633 -0.39129,2.59411 -0.62122,4.03335 m -0.81347,4.97311 c -1.59111,9.57241 -3.50686,20.54525 -3.50686,23.85495 0,4.4474 0.98831,11.1185 0.98831,11.1185 m -34.09675,-37.06173 40.80932,-14.93674 m 4.75797,-1.74148 1.64233,-0.60112 m 4.83799,-1.77076 23.55822,-8.62262 m -9.63604,57.56925 c 0,0 -18.76244,-41.17322 -29.04632,-55.92686 m -3.56924,-4.3083 c -0.45752,-0.39856 -0.87089,-0.66793 -1.23411,-0.79318 -5.28918,-1.82385 -11.79004,-3.10918 -15.82549,1.21243 m -2.56355,4.5384 c -0.24541,0.73394 -0.45852,1.5333 -0.63596,2.40274 -0.89046,4.36327 1.71711,9.27211 5.81026,13.39643 m 4.38299,3.72016 c 7.02718,5.04071 15.80625,7.52366 20.19734,3.39087 0.95174,-0.89575 1.79882,-1.85176 2.53838,-2.85474 m 2.80538,-5.39602 c 2.27181,-6.90258 0.30104,-14.73411 -6.57915,-20.41027 -4.69147,-3.87046 -7.04457,1.2785 -9.12075,9.1568 m -1.29927,5.30381 c -0.1989,0.84856 -0.39929,1.71028 -0.60306,2.57943 m -1.4308,5.84808 c -0.25825,0.98937 -0.52618,1.97189 -0.80653,2.93925 m -1.56554,4.80089 c -0.85736,2.30793 -1.82944,4.41829 -2.96366,6.18634 -8.40065,13.09514 -15.81299,13.09514 -15.81299,13.09514"
       inkscape:path-effect="#path-effect3407"
       inkscape:original-d="m 234.13719,938.94856 c 0,0 9.88312,20.75455 17.78961,21.74286 7.90649,0.98831 18.53084,6.91818 17.04837,17.04837 -1.48247,10.13019 -4.94155,28.41401 -4.94155,32.86141 0,4.4474 0.98831,11.1185 0.98831,11.1185 m -34.09675,-37.06173 75.60583,-27.67272 m -9.63604,57.56925 c 0,0 -26.68441,-58.55757 -33.84967,-61.02834 -7.16526,-2.47078 -16.55422,-3.95325 -19.025,8.15357 -2.47078,12.10681 21.98994,28.41396 30.39059,20.50746 8.40065,-7.90649 8.64772,-20.50746 -1.23539,-28.66103 -9.88312,-8.15357 -9.38896,23.71948 -17.78961,36.8146 -8.40065,13.09514 -15.81299,13.09514 -15.81299,13.09514"
       inkscape:connector-curvature="0"
       sodipodi:nodetypes="csssccccsssssc" />
  </g>
</svg>
