<?xml version="1.0" encoding="UTF-8" standalone="no"?>
<!-- Created with Inkscape (http://www.inkscape.org/) -->

<svg
   xmlns:dc="http://purl.org/dc/elements/1.1/"
   xmlns:cc="http://creativecommons.org/ns#"
   xmlns:rdf="http://www.w3.org/1999/02/22-rdf-syntax-ns#"
   xmlns:svg="http://www.w3.org/2000/svg"
   xmlns="http://www.w3.org/2000/svg"
   xmlns:sodipodi="http://sodipodi.sourceforge.net/DTD/sodipodi-0.dtd"
   xmlns:inkscape="http://www.inkscape.org/namespaces/inkscape"
   width="1.1061702in"
   height="1.1127657in"
   viewBox="0 0 99.555319 100.14891"
   id="svg5761"
   version="1.1"
   inkscape:version="0.91 r"
   sodipodi:docname="8x_tref_deloopy.svg">
  <defs
     id="defs5763">
    <marker
       inkscape:stockid="Arrow1Mstart"
       orient="auto"
       refY="0"
       refX="0"
       id="Arrow1Mstart"
       style="overflow:visible"
       inkscape:isstock="true">
      <path
         id="path5006"
         d="M 0,0 5,-5 -12.5,0 5,5 0,0 Z"
         style="fill:#000000;fill-opacity:1;fill-rule:evenodd;stroke:#000000;stroke-width:1pt;stroke-opacity:1"
         transform="matrix(0.4,0,0,0.4,4,0)"
         inkscape:connector-curvature="0" />
    </marker>
    <marker
       inkscape:stockid="Club"
       orient="auto"
       refY="0"
       refX="0"
       id="Club"
       style="overflow:visible"
       inkscape:isstock="true">
      <path
         id="path5229"
         d="m -1.5971367,-7.0977635 c -1.8892507,0 -3.426382,1.5371314 -3.426382,3.4263822 0,0.6566798 0.2383531,1.2269257 0.5594092,1.7481542 -0.038751,0.032111 -0.079672,0.058463 -0.1165436,0.093235 -0.6224234,-0.8549928 -1.5893983,-1.4451409 -2.7271199,-1.4451409 -1.8892515,-1e-7 -3.426382,1.5371314 -3.426382,3.42638214 0,1.88925076 1.5371305,3.42638216 3.426382,3.42638216 0.9934462,0 1.868619,-0.4420611 2.4940326,-1.1188187 -0.124687,0.3548915 -0.2097783,0.7214874 -0.2097783,1.1188187 0,1.8892506 1.5371313,3.4263822 3.426382,3.4263822 1.88925064,0 3.4263821,-1.5371316 3.4263821,-3.4263822 0,-0.7933959 -0.3155586,-1.4938285 -0.7691878,-2.0744763 C 2.4152718,1.7663868 3.7718375,2.2973711 4.7661444,3.8340272 4.0279463,3.0958289 3.5540908,1.7534117 3.5540908,-0.05852936 l -0.6293354,-0.04661745 0.5827179,-0.0233087 c 0,-1.81194109 0.4505466,-3.15435829 1.188745,-3.89255659 -0.9590906,1.4822308 -2.2571634,2.0263625 -3.5662345,2.3075635 0.4041964,-0.5619092 0.6992616,-1.213407 0.6992616,-1.9579327 0,-1.8892506 -1.53713146,-3.4263822 -3.4263821,-3.4263822 z"
         style="fill:#000000;fill-opacity:1;fill-rule:evenodd;stroke:#000000;stroke-width:0.74587913pt;stroke-opacity:1"
         transform="scale(0.6,0.6)"
         inkscape:connector-curvature="0" />
    </marker>
    <marker
       inkscape:stockid="Arrow1Mend"
       orient="auto"
       refY="0"
       refX="0"
       id="Arrow1Mend"
       style="overflow:visible"
       inkscape:isstock="true">
      <path
         id="path5009"
         d="M 0,0 5,-5 -12.5,0 5,5 0,0 Z"
         style="fill:#000000;fill-opacity:1;fill-rule:evenodd;stroke:#000000;stroke-width:1pt;stroke-opacity:1"
         transform="matrix(-0.4,0,0,-0.4,-4,0)"
         inkscape:connector-curvature="0" />
    </marker>
    <marker
       inkscape:stockid="Arrow2Lstart"
       orient="auto"
       refY="0"
       refX="0"
       id="Arrow2Lstart"
       style="overflow:visible"
       inkscape:isstock="true">
      <path
         id="path5018"
         style="fill:#000000;fill-opacity:1;fill-rule:evenodd;stroke:#000000;stroke-width:0.625;stroke-linejoin:round;stroke-opacity:1"
         d="M 8.7185878,4.0337352 -2.2072895,0.01601326 8.7185884,-4.0017078 c -1.7454984,2.3720609 -1.7354408,5.6174519 -6e-7,8.035443 z"
         transform="matrix(1.1,0,0,1.1,1.1,0)"
         inkscape:connector-curvature="0" />
    </marker>
    <marker
       inkscape:stockid="Arrow1Lstart"
       orient="auto"
       refY="0"
       refX="0"
       id="Arrow1Lstart"
       style="overflow:visible"
       inkscape:isstock="true">
      <path
         id="path5000"
         d="M 0,0 5,-5 -12.5,0 5,5 0,0 Z"
         style="fill:#000000;fill-opacity:1;fill-rule:evenodd;stroke:#000000;stroke-width:1pt;stroke-opacity:1"
         transform="matrix(0.8,0,0,0.8,10,0)"
         inkscape:connector-curvature="0" />
    </marker>
    <marker
       inkscape:stockid="Arrow2Sstart"
       orient="auto"
       refY="0"
       refX="0"
       id="Arrow2Sstart"
       style="overflow:visible"
       inkscape:isstock="true">
      <path
         id="path5030"
         style="fill:#000000;fill-opacity:1;fill-rule:evenodd;stroke:#000000;stroke-width:0.625;stroke-linejoin:round;stroke-opacity:1"
         d="M 8.7185878,4.0337352 -2.2072895,0.01601326 8.7185884,-4.0017078 c -1.7454984,2.3720609 -1.7354408,5.6174519 -6e-7,8.035443 z"
         transform="matrix(0.3,0,0,0.3,-0.69,0)"
         inkscape:connector-curvature="0" />
    </marker>
    <marker
       inkscape:stockid="Arrow2Mstart"
       orient="auto"
       refY="0"
       refX="0"
       id="Arrow2Mstart"
       style="overflow:visible"
       inkscape:isstock="true">
      <path
         id="path5024"
         style="fill:#000000;fill-opacity:1;fill-rule:evenodd;stroke:#000000;stroke-width:0.625;stroke-linejoin:round;stroke-opacity:1"
         d="M 8.7185878,4.0337352 -2.2072895,0.01601326 8.7185884,-4.0017078 c -1.7454984,2.3720609 -1.7354408,5.6174519 -6e-7,8.035443 z"
         transform="scale(0.6,0.6)"
         inkscape:connector-curvature="0" />
    </marker>
    <inkscape:path-effect
       effect="knot"
       id="path-effect5771"
       is_visible="true"
       interruption_width="7"
       prop_to_stroke_width="true"
       add_stroke_width="true"
       add_other_stroke_width="true"
       switcher_size="15"
       crossing_points_vector="294.00653 | 973.01342 | 0 | 0 | 0 | 1 | 0.421918 | 2.7491081 | -1 | 249.88935 | 959.00668 | 0 | 0 | 3 | 6 | 3.5204856 | 5.6927446 | 1 | 229.93771 | 953.6207 | 0 | 0 | 4 | 11 | 3.843141 | 12.513988 | 1 | 275.94508 | 961.42686 | 0 | 0 | 2 | 15 | 3.1872397 | 15.316745 | 1 | 254.28311 | 938.70651 | 0 | 0 | 5 | 10 | 5.2099886 | 11.71056 | -1 | 227.4408 | 981.94472 | 0 | 0 | 7 | 12 | 6.5622251 | 13.282639 | 1 | 230.51654 | 997.30932 | 0 | 0 | 8 | 13 | 7.3134065 | 13.495357 | 1 | 260.81202 | 995.99473 | 0 | 0 | 9 | 14 | 7.9117577 | 14.560454 | 1" />
  </defs>
  <sodipodi:namedview
     id="base"
     pagecolor="#ffffff"
     bordercolor="#666666"
     borderopacity="1.0"
     inkscape:pageopacity="0.0"
     inkscape:pageshadow="2"
     inkscape:zoom="4.0473066"
     inkscape:cx="13.967316"
     inkscape:cy="57.143456"
     inkscape:document-units="in"
     inkscape:current-layer="layer1"
     showgrid="false"
     units="in"
     fit-margin-top="0"
     fit-margin-left="0"
     fit-margin-right="0"
     fit-margin-bottom="0"
     inkscape:window-width="1920"
     inkscape:window-height="1004"
     inkscape:window-x="-4"
     inkscape:window-y="0"
     inkscape:window-maximized="1" />
  <metadata
     id="metadata5766">
    <rdf:RDF>
      <cc:Work
         rdf:about="">
        <dc:format>image/svg+xml</dc:format>
        <dc:type
           rdf:resource="http://purl.org/dc/dcmitype/StillImage" />
        <dc:title></dc:title>
      </cc:Work>
    </rdf:RDF>
  </metadata>
  <g
     inkscape:label="Layer 1"
     inkscape:groupmode="layer"
     id="layer1"
     transform="translate(-218.95043,-930.17227)">
    <path
       style="fill:none;fill-rule:evenodd;stroke:#000000;stroke-width:0.98624998;stroke-linecap:butt;stroke-linejoin:miter;stroke-miterlimit:3.70000005;stroke-dasharray:none;stroke-opacity:1;marker-start:url(#Arrow1Mstart)"
       inkscape:path-effect="#path-effect5771"
       inkscape:original-d="m 225.34389,949.06081 c 0.34008,-9.13846 16.44985,-18.714 23.91844,-13.43696 10.72902,7.58075 -0.32381,27.35809 -6.71751,38.83417 -4.84719,8.70025 -25.20336,10.2807 -22.35439,19.82391 4.17585,13.98787 30.85644,-1.24058 43.33247,6.33877 9.0392,5.4915 7.99576,26.517 18.5442,25.7465 25.14346,-1.8366 38.65178,-42.22471 34.81535,-67.14154 -1.18246,-7.67984 -9.13478,-13.91228 -16.45876,-16.50794 -20.3776,-7.22194 -46.21531,-4.69839 -64.49653,6.84284 -5.31145,3.3532 -9.38586,9.79874 -9.85341,16.06267 -1.4808,19.83883 3.41674,55.20027 23.30908,54.94207 15.77038,-0.2047 22.07316,-28.97674 17.34244,-44.02224 -4.96676,-15.79618 -41.99717,-10.93508 -41.38138,-27.48225 z"
       id="path5769"
       d="m 226.05728,953.07525 c -0.51412,-1.18223 -0.76938,-2.50983 -0.71339,-4.01444 0.34008,-9.13846 16.44985,-18.714 23.91844,-13.43696 0.88971,0.62864 1.62963,1.34114 2.23484,2.12583 m 2.22265,8.59747 c -0.50192,8.98135 -6.8865,20.41343 -11.175,28.11087 -2.08399,3.74057 -7.03477,6.16507 -11.77561,8.47214 m -8.37241,4.88471 c -1.98541,1.75297 -3.00295,3.79876 -2.20637,6.46706 4.04919,13.56357 29.25865,-0.34367 42.15906,5.7106 m 6.87283,8.07987 c 3.66487,8.1094 5.25137,18.8495 12.84478,18.2948 25.14346,-1.8366 38.65178,-42.22471 34.81535,-67.14154 -1.18246,-7.67984 -9.13478,-13.91228 -16.45876,-16.50794 -20.3776,-7.22194 -46.21531,-4.69839 -64.49653,6.84284 -5.31145,3.3532 -9.38586,9.79874 -9.85341,16.06267 -0.64007,8.57531 -0.0884,20.05086 2.35082,30.29634 m 2.82739,9.03563 c 3.68893,9.1253 9.49778,15.7222 18.13087,15.6101 15.77038,-0.2047 22.07316,-28.97674 17.34244,-44.02224 -1.77788,-5.65432 -7.66412,-8.66179 -14.46147,-10.95175 m -8.61297,-2.5916 c -3.94769,-1.14153 -7.76783,-2.30679 -10.88854,-3.84087"
       inkscape:connector-curvature="0"
       sodipodi:nodetypes="aaaaaaaaaaaaa" />
  </g>
</svg>
