<?xml version="1.0" encoding="UTF-8" standalone="no"?>
<!-- Created with Inkscape (http://www.inkscape.org/) -->

<svg
   xmlns:dc="http://purl.org/dc/elements/1.1/"
   xmlns:cc="http://creativecommons.org/ns#"
   xmlns:rdf="http://www.w3.org/1999/02/22-rdf-syntax-ns#"
   xmlns:svg="http://www.w3.org/2000/svg"
   xmlns="http://www.w3.org/2000/svg"
   xmlns:sodipodi="http://sodipodi.sourceforge.net/DTD/sodipodi-0.dtd"
   xmlns:inkscape="http://www.inkscape.org/namespaces/inkscape"
   id="svg2"
   version="1.1"
   inkscape:version="0.91 r"
   xml:space="preserve"
   width="401.87149"
   height="161.76994"
   viewBox="0 0 401.87149 161.76994"
   sodipodi:docname="legdias.svg"><metadata
     id="metadata8"><rdf:RDF><cc:Work
         rdf:about=""><dc:format>image/svg+xml</dc:format><dc:type
           rdf:resource="http://purl.org/dc/dcmitype/StillImage" /><dc:title></dc:title></cc:Work></rdf:RDF></metadata><defs
     id="defs6"><clipPath
       clipPathUnits="userSpaceOnUse"
       id="clipPath26"><path
         d="m 0,0 0,5730 5230,0 L 5230,0 0,0 Z m 1025.7,4603.04 180.32,-64.41 -180.32,-64.4 191.42,0 0,128.81 -191.42,0 z"
         id="path28"
         inkscape:connector-curvature="0" /></clipPath><clipPath
       clipPathUnits="userSpaceOnUse"
       id="clipPath40"><path
         d="m 0,0 0,5730 5230,0 L 5230,0 0,0 Z m 1562.39,4603.04 180.34,-64.41 -180.34,-64.4 191.43,0 0,128.81 -191.43,0 z"
         id="path42"
         inkscape:connector-curvature="0" /></clipPath><clipPath
       clipPathUnits="userSpaceOnUse"
       id="clipPath56"><path
         d="m 0,0 0,5730 5230,0 L 5230,0 0,0 Z m 59.6328,5480.36 180.3322,-64.4 -180.3322,-64.41 191.4262,0 0,128.81 -191.4262,0 z"
         id="path58"
         inkscape:connector-curvature="0" /></clipPath><clipPath
       clipPathUnits="userSpaceOnUse"
       id="clipPath72"><path
         d="m 0,0 0,5730 5230,0 L 5230,0 0,0 Z m 3478.41,2165.35 180.34,-64.41 -180.34,-64.4 191.43,0 0,128.81 -191.43,0 z"
         id="path74"
         inkscape:connector-curvature="0" /></clipPath><clipPath
       clipPathUnits="userSpaceOnUse"
       id="clipPath88"><path
         d="m 0,0 0,5730 5230,0 L 5230,0 0,0 Z m 2082.99,4605.54 180.33,-64.4 -180.33,-64.41 191.43,0 0,128.81 -191.43,0 z"
         id="path90"
         inkscape:connector-curvature="0" /></clipPath><clipPath
       clipPathUnits="userSpaceOnUse"
       id="clipPath102"><path
         d="m 0,0 0,5730 5230,0 L 5230,0 0,0 Z m 2619.69,4605.54 180.33,-64.4 -180.33,-64.41 191.43,0 0,128.81 -191.43,0 z"
         id="path104"
         inkscape:connector-curvature="0" /></clipPath><clipPath
       clipPathUnits="userSpaceOnUse"
       id="clipPath118"><path
         d="m 0,0 0,5730 5230,0 L 5230,0 0,0 Z m 934.457,5480.36 180.333,-64.4 -180.333,-64.41 191.423,0 0,128.81 -191.423,0 z"
         id="path120"
         inkscape:connector-curvature="0" /></clipPath><clipPath
       clipPathUnits="userSpaceOnUse"
       id="clipPath138"><path
         d="m 0,0 0,5730 5230,0 L 5230,0 0,0 Z m 3070.52,4605.9 180.33,-64.4 -180.33,-64.41 191.43,0 0,128.81 -191.43,0 z"
         id="path140"
         inkscape:connector-curvature="0" /></clipPath><clipPath
       clipPathUnits="userSpaceOnUse"
       id="clipPath152"><path
         d="m 0,0 0,5730 5230,0 L 5230,0 0,0 Z m 3607.22,4605.9 180.33,-64.4 -180.33,-64.41 191.42,0 0,128.81 -191.42,0 z"
         id="path154"
         inkscape:connector-curvature="0" /></clipPath><clipPath
       clipPathUnits="userSpaceOnUse"
       id="clipPath166"><path
         d="m 0,0 0,5730 5230,0 L 5230,0 0,0 Z m 4863.1,3094.91 180.33,-64.4 -180.33,-64.41 191.42,0 0,128.81 -191.42,0 z"
         id="path168"
         inkscape:connector-curvature="0" /></clipPath><clipPath
       clipPathUnits="userSpaceOnUse"
       id="clipPath186"><path
         d="m 0,0 0,5730 5230,0 L 5230,0 0,0 Z m 48.8984,3093.12 180.3316,-64.4 -180.3316,-64.4 191.4256,0 0,128.8 -191.4256,0 z"
         id="path188"
         inkscape:connector-curvature="0" /></clipPath><clipPath
       clipPathUnits="userSpaceOnUse"
       id="clipPath200"><path
         d="m 0,0 0,5730 5230,0 L 5230,0 0,0 Z m 59.6328,4605.54 180.3322,-64.4 -180.3322,-64.41 191.4262,0 0,128.81 -191.4262,0 z"
         id="path202"
         inkscape:connector-curvature="0" /></clipPath><clipPath
       clipPathUnits="userSpaceOnUse"
       id="clipPath214"><path
         d="m 0,0 0,5730 5230,0 L 5230,0 0,0 Z m 596.336,4605.54 180.328,-64.4 -180.328,-64.41 191.422,0 0,128.81 -191.422,0 z"
         id="path216"
         inkscape:connector-curvature="0" /></clipPath><clipPath
       clipPathUnits="userSpaceOnUse"
       id="clipPath228"><path
         d="m 0,0 0,5730 5230,0 L 5230,0 0,0 Z m 800.281,3093.12 180.328,-64.4 -180.328,-64.4 191.422,0 0,128.8 -191.422,0 z"
         id="path230"
         inkscape:connector-curvature="0" /></clipPath><clipPath
       clipPathUnits="userSpaceOnUse"
       id="clipPath246"><path
         d="m 0,0 0,5730 5230,0 L 5230,0 0,0 Z m 4111.72,3094.91 180.33,-64.4 -180.33,-64.41 191.42,0 0,128.81 -191.42,0 z"
         id="path248"
         inkscape:connector-curvature="0" /></clipPath><clipPath
       clipPathUnits="userSpaceOnUse"
       id="clipPath262"><path
         d="m 0,0 0,5730 5230,0 L 5230,0 0,0 Z m 4125.32,2160.34 180.33,-64.41 -180.33,-64.4 191.42,0 0,128.81 -191.42,0 z"
         id="path264"
         inkscape:connector-curvature="0" /></clipPath><clipPath
       clipPathUnits="userSpaceOnUse"
       id="clipPath276"><path
         d="m 0,0 0,5730 5230,0 L 5230,0 0,0 Z m 1342.35,5480.36 180.33,-64.4 -180.33,-64.41 191.42,0 0,128.81 -191.42,0 z"
         id="path278"
         inkscape:connector-curvature="0" /></clipPath><clipPath
       clipPathUnits="userSpaceOnUse"
       id="clipPath290"><path
         d="m 0,0 0,5730 5230,0 L 5230,0 0,0 Z m 2217.17,5480.36 180.33,-64.4 -180.33,-64.41 191.42,0 0,128.81 -191.42,0 z"
         id="path292"
         inkscape:connector-curvature="0" /></clipPath><clipPath
       clipPathUnits="userSpaceOnUse"
       id="clipPath308"><path
         d="m 0,0 0,5730 5230,0 L 5230,0 0,0 Z m 4801.56,2165.7 180.33,-64.4 -180.33,-64.4 191.42,0 0,128.8 -191.42,0 z"
         id="path310"
         inkscape:connector-curvature="0" /></clipPath><clipPath
       clipPathUnits="userSpaceOnUse"
       id="clipPath326"><path
         d="m 0,0 0,5730 5230,0 L 5230,0 0,0 Z m 2635.79,5480.36 180.34,-64.4 -180.34,-64.41 191.43,0 0,128.81 -191.43,0 z"
         id="path328"
         inkscape:connector-curvature="0" /></clipPath><clipPath
       clipPathUnits="userSpaceOnUse"
       id="clipPath340"><path
         d="m 0,0 0,5730 5230,0 L 5230,0 0,0 Z m 3510.61,5480.36 180.34,-64.4 -180.34,-64.41 191.43,0 0,128.81 -191.43,0 z"
         id="path342"
         inkscape:connector-curvature="0" /></clipPath><clipPath
       clipPathUnits="userSpaceOnUse"
       id="clipPath364"><path
         d="m 0,0 0,5730 5230,0 L 5230,0 0,0 Z m 3907.77,5480.36 180.34,-64.4 -180.34,-64.41 191.43,0 0,128.81 -191.43,0 z"
         id="path366"
         inkscape:connector-curvature="0" /></clipPath><clipPath
       clipPathUnits="userSpaceOnUse"
       id="clipPath378"><path
         d="m 0,0 0,5730 5230,0 L 5230,0 0,0 Z m 4782.59,5480.36 180.34,-64.4 -180.34,-64.41 191.43,0 0,128.81 -191.43,0 z"
         id="path380"
         inkscape:connector-curvature="0" /></clipPath><clipPath
       clipPathUnits="userSpaceOnUse"
       id="clipPath392"><path
         d="m 0,0 0,5730 5230,0 L 5230,0 0,0 Z m 2825.07,3093.12 180.33,-64.4 -180.33,-64.4 191.42,0 0,128.8 -191.42,0 z"
         id="path394"
         inkscape:connector-curvature="0" /></clipPath><clipPath
       clipPathUnits="userSpaceOnUse"
       id="clipPath408"><path
         d="m 0,0 0,5730 5230,0 L 5230,0 0,0 Z m 3576.45,3093.12 180.33,-64.4 -180.33,-64.4 191.43,0 0,128.8 -191.43,0 z"
         id="path410"
         inkscape:connector-curvature="0" /></clipPath><clipPath
       clipPathUnits="userSpaceOnUse"
       id="clipPath422"><path
         d="m 0,0 0,5730 5230,0 L 5230,0 0,0 Z m 4095.62,4605.54 180.33,-64.4 -180.33,-64.41 191.42,0 0,128.81 -191.42,0 z"
         id="path424"
         inkscape:connector-curvature="0" /></clipPath><clipPath
       clipPathUnits="userSpaceOnUse"
       id="clipPath436"><path
         d="m 0,0 0,5730 5230,0 L 5230,0 0,0 Z m 4970.44,4605.54 180.33,-64.4 -180.33,-64.41 191.42,0 0,128.81 -191.42,0 z"
         id="path438"
         inkscape:connector-curvature="0" /></clipPath><clipPath
       clipPathUnits="userSpaceOnUse"
       id="clipPath458"><path
         d="m 0,0 0,5730 5230,0 L 5230,0 0,0 Z m 1412.12,3098.85 180.33,-64.41 -180.33,-64.4 191.42,0 0,128.81 -191.42,0 z"
         id="path460"
         inkscape:connector-curvature="0" /></clipPath><clipPath
       clipPathUnits="userSpaceOnUse"
       id="clipPath472"><path
         d="m 0,0 0,5730 5230,0 L 5230,0 0,0 Z m 2184.96,752.395 180.34,-64.403 -180.34,-64.406 191.43,0 0,128.809 -191.43,0 z"
         id="path474"
         inkscape:connector-curvature="0" /></clipPath><clipPath
       clipPathUnits="userSpaceOnUse"
       id="clipPath486"><path
         d="m 0,0 0,5730 5230,0 L 5230,0 0,0 Z m 2753.87,753.469 180.33,-64.406 -180.33,-64.403 191.42,0 0,128.809 -191.42,0 z"
         id="path488"
         inkscape:connector-curvature="0" /></clipPath><clipPath
       clipPathUnits="userSpaceOnUse"
       id="clipPath500"><path
         d="m 0,0 0,5730 5230,0 L 5230,0 0,0 Z m 2163.5,3098.85 180.33,-64.41 -180.33,-64.4 191.42,0 0,128.81 -191.42,0 z"
         id="path502"
         inkscape:connector-curvature="0" /></clipPath><clipPath
       clipPathUnits="userSpaceOnUse"
       id="clipPath516"><path
         d="m 0,0 0,5730 5230,0 L 5230,0 0,0 Z m 2802.17,2170.71 180.33,-64.4 -180.33,-64.4 191.42,0 0,128.8 -191.42,0 z"
         id="path518"
         inkscape:connector-curvature="0" /></clipPath><clipPath
       clipPathUnits="userSpaceOnUse"
       id="clipPath530"><path
         d="m 0,0 0,5730 5230,0 L 5230,0 0,0 Z m 1428.22,2169.28 180.33,-64.4 -180.33,-64.4 191.42,0 0,128.8 -191.42,0 z"
         id="path532"
         inkscape:connector-curvature="0" /></clipPath><clipPath
       clipPathUnits="userSpaceOnUse"
       id="clipPath550"><path
         d="m 0,0 0,5730 5230,0 L 5230,0 0,0 Z m 1836.11,2172.86 180.33,-64.4 -180.33,-64.41 191.43,0 0,128.81 -191.43,0 z"
         id="path552"
         inkscape:connector-curvature="0" /></clipPath><clipPath
       clipPathUnits="userSpaceOnUse"
       id="clipPath566"><path
         d="m 0,0 0,5730 5230,0 L 5230,0 0,0 Z m 48.8984,2186.82 180.3316,-64.41 -180.3316,-64.4 191.4256,0 0,128.81 -191.4256,0 z"
         id="path568"
         inkscape:connector-curvature="0" /></clipPath><clipPath
       clipPathUnits="userSpaceOnUse"
       id="clipPath580"><path
         d="m 0,0 0,5730 5230,0 L 5230,0 0,0 Z m 456.793,2190.39 180.332,-64.4 -180.332,-64.4 191.422,0 0,128.8 -191.422,0 z"
         id="path582"
         inkscape:connector-curvature="0" /></clipPath><clipPath
       clipPathUnits="userSpaceOnUse"
       id="clipPath214-2"><path
         d="m 0,0 0,5730 5230,0 L 5230,0 0,0 Z m 596.336,4605.54 180.328,-64.4 -180.328,-64.41 191.422,0 0,128.81 -191.422,0 z"
         id="path216-0"
         inkscape:connector-curvature="0" /></clipPath><clipPath
       clipPathUnits="userSpaceOnUse"
       id="clipPath200-7"><path
         d="m 0,0 0,5730 5230,0 L 5230,0 0,0 Z m 59.6328,4605.54 180.3322,-64.4 -180.3322,-64.41 191.4262,0 0,128.81 -191.4262,0 z"
         id="path202-3"
         inkscape:connector-curvature="0" /></clipPath><clipPath
       clipPathUnits="userSpaceOnUse"
       id="clipPath102-7"><path
         d="m 0,0 0,5730 5230,0 L 5230,0 0,0 Z m 2619.69,4605.54 180.33,-64.4 -180.33,-64.41 191.43,0 0,128.81 -191.43,0 z"
         id="path104-1"
         inkscape:connector-curvature="0" /></clipPath><clipPath
       clipPathUnits="userSpaceOnUse"
       id="clipPath88-0"><path
         d="m 0,0 0,5730 5230,0 L 5230,0 0,0 Z m 2082.99,4605.54 180.33,-64.4 -180.33,-64.41 191.43,0 0,128.81 -191.43,0 z"
         id="path90-4"
         inkscape:connector-curvature="0" /></clipPath><clipPath
       clipPathUnits="userSpaceOnUse"
       id="clipPath40-5"><path
         d="m 0,0 0,5730 5230,0 L 5230,0 0,0 Z m 1562.39,4603.04 180.34,-64.41 -180.34,-64.4 191.43,0 0,128.81 -191.43,0 z"
         id="path42-8"
         inkscape:connector-curvature="0" /></clipPath><clipPath
       clipPathUnits="userSpaceOnUse"
       id="clipPath26-5"><path
         d="m 0,0 0,5730 5230,0 L 5230,0 0,0 Z m 1025.7,4603.04 180.32,-64.41 -180.32,-64.4 191.42,0 0,128.81 -191.42,0 z"
         id="path28-0"
         inkscape:connector-curvature="0" /></clipPath></defs><sodipodi:namedview
     pagecolor="#ffffff"
     bordercolor="#666666"
     borderopacity="1"
     objecttolerance="10"
     gridtolerance="10"
     guidetolerance="10"
     inkscape:pageopacity="0"
     inkscape:pageshadow="2"
     inkscape:window-width="1920"
     inkscape:window-height="1004"
     id="namedview4"
     showgrid="false"
     fit-margin-top="0"
     fit-margin-left="0"
     fit-margin-right="0"
     fit-margin-bottom="0"
     showguides="true"
     inkscape:guide-bbox="true"
     inkscape:zoom="2.9800392"
     inkscape:cx="172.37341"
     inkscape:cy="54.657975"
     inkscape:window-x="-4"
     inkscape:window-y="0"
     inkscape:window-maximized="1"
     inkscape:current-layer="g10"><sodipodi:guide
       position="196.91345,87.690225"
       orientation="1,0"
       id="guide5594" /></sodipodi:namedview><g
     id="g10"
     inkscape:groupmode="layer"
     inkscape:label="ink_ext_XXXXXX"
     transform="matrix(1.25,0,0,-1.25,-753.11078,868.55721)"><path
       style="fill:none;fill-rule:evenodd;stroke:#ff2a2a;stroke-width:0.80000001px;stroke-linecap:butt;stroke-linejoin:miter;stroke-opacity:1"
       d="m 808.29655,635.3675 c 14.05303,0 -6.98816,-69.41903 -48.46173,-69.41903 -41.47356,0 -57.92589,69.40824 -37.18911,69.40824"
       id="path5596"
       inkscape:connector-curvature="0"
       sodipodi:nodetypes="csc" /><path
       style="fill:none;fill-rule:evenodd;stroke:#ff2a2a;stroke-width:0.80000001px;stroke-linecap:butt;stroke-linejoin:miter;stroke-opacity:1"
       d="m 919.23803,635.24885 c 14.05303,0 -6.98816,-69.41903 -48.46173,-69.41903 -41.47356,0 -57.92589,69.40824 -37.18911,69.40824"
       id="path5596-3"
       inkscape:connector-curvature="0"
       sodipodi:nodetypes="csc" /><path
       style="fill:none;fill-rule:evenodd;stroke:#ff2a2a;stroke-width:0.80000001px;stroke-linecap:butt;stroke-linejoin:miter;stroke-opacity:1"
       d="m 697.49598,635.5173 c 14.05303,0 -6.98816,-69.41903 -48.46173,-69.41903 -41.47356,0 -57.92589,69.40824 -37.18911,69.40824"
       id="path5596-3-6"
       inkscape:connector-curvature="0"
       sodipodi:nodetypes="csc" /><g
       id="g5534"
       transform="translate(-9.6,0)"><path
         d="m 673.39264,650.55007 c 0,-8.062 -6.5363,-14.598 -14.5984,-14.598 -8.0621,0 -14.5981,6.536 -14.5981,14.598 0,8.063 6.536,14.599 14.5981,14.599 8.0621,0 14.5984,-6.536 14.5984,-14.599 z"
         style="fill:none;stroke:#000000;stroke-width:1.07340002;stroke-linecap:butt;stroke-linejoin:miter;stroke-miterlimit:10;stroke-dasharray:none;stroke-opacity:1"
         id="path176"
         inkscape:connector-curvature="0" /><path
         d="m 674.50164,679.71107 c 0,-8.062 -6.5359,-14.598 -14.598,-14.598 -8.0621,0 -14.5985,6.536 -14.5985,14.598 0,8.062 6.5364,14.598 14.5985,14.598 8.0621,0 14.598,-6.536 14.598,-14.598 z"
         style="fill:none;stroke:#000000;stroke-width:1.07340002;stroke-linecap:butt;stroke-linejoin:miter;stroke-miterlimit:10;stroke-dasharray:none;stroke-opacity:1"
         id="path180"
         inkscape:connector-curvature="0" /><g
         transform="matrix(0.1,0,0,0.1,619.19774,181.40907)"
         id="g196"><g
           id="g198"
           clip-path="url(#clipPath200-7)"><path
             d="m 84.6797,4541.14 161.0113,0"
             style="fill:none;stroke:#000000;stroke-width:2.68350005;stroke-linecap:butt;stroke-linejoin:miter;stroke-miterlimit:10;stroke-dasharray:none;stroke-opacity:1"
             id="path204"
             inkscape:connector-curvature="0" /></g></g><path
         d="m 625.16102,641.96307 18.03322,-6.44 -18.03322,-6.441 3.00547,6.441 -3.00547,6.44"
         style="fill:#000000;fill-opacity:1;fill-rule:evenodd;stroke:none"
         id="path206"
         inkscape:connector-curvature="0" /><path
         d="m 625.16102,641.96307 18.03322,-6.44 -18.03322,-6.441 3.00547,6.441 -3.00547,6.44 z"
         style="fill:none;stroke:#000000;stroke-width:0.26835001;stroke-linecap:butt;stroke-linejoin:miter;stroke-miterlimit:10;stroke-dasharray:none;stroke-opacity:1"
         id="path208"
         inkscape:connector-curvature="0" /><g
         transform="matrix(0.1,0,0,0.1,619.19774,181.40907)"
         id="g210"><g
           id="g212"
           clip-path="url(#clipPath214-2)"><path
             d="m 621.379,4541.14 161.012,0"
             style="fill:none;stroke:#000000;stroke-width:2.68350005;stroke-linecap:butt;stroke-linejoin:miter;stroke-miterlimit:10;stroke-dasharray:none;stroke-opacity:1"
             id="path218"
             inkscape:connector-curvature="0" /></g></g><path
         d="m 678.83134,641.96307 18.0328,-6.44 -18.0328,-6.441 3.0055,6.441 -3.0055,6.44"
         style="fill:#000000;fill-opacity:1;fill-rule:evenodd;stroke:none"
         id="path220"
         inkscape:connector-curvature="0" /><path
         d="m 678.83134,641.96307 18.0328,-6.44 -18.0328,-6.441 3.0055,6.441 -3.0055,6.44 z"
         style="fill:none;stroke:#000000;stroke-width:0.26835001;stroke-linecap:butt;stroke-linejoin:miter;stroke-miterlimit:10;stroke-dasharray:none;stroke-opacity:1"
         id="path222"
         inkscape:connector-curvature="0" /><path
         d="m 662.73014,635.52307 c 0,-2.094 -1.698,-3.793 -3.7926,-3.793 -2.0945,0 -3.7929,1.699 -3.7929,3.793 0,2.095 1.6984,3.793 3.7929,3.793 2.0946,0 3.7926,-1.698 3.7926,-3.793"
         style="fill:#000000;fill-opacity:1;fill-rule:evenodd;stroke:none"
         id="path592"
         inkscape:connector-curvature="0" /><path
         d="m 662.73014,635.52307 c 0,-2.094 -1.698,-3.793 -3.7926,-3.793 -2.0945,0 -3.7929,1.699 -3.7929,3.793 0,2.095 1.6984,3.793 3.7929,3.793 2.0946,0 3.7926,-1.698 3.7926,-3.793 z"
         style="fill:none;stroke:#000000;stroke-width:0.26835001;stroke-linecap:butt;stroke-linejoin:miter;stroke-miterlimit:10;stroke-dasharray:none;stroke-opacity:1"
         id="path594"
         inkscape:connector-curvature="0" /><path
         d="m 662.44384,665.36307 c 0,-2.094 -1.6981,-3.792 -3.7926,-3.792 -2.0945,0 -3.7926,1.698 -3.7926,3.792 0,2.095 1.6981,3.793 3.7926,3.793 2.0945,0 3.7926,-1.698 3.7926,-3.793"
         style="fill:#000000;fill-opacity:1;fill-rule:evenodd;stroke:none"
         id="path596"
         inkscape:connector-curvature="0" /><path
         d="m 662.44384,665.36307 c 0,-2.094 -1.6981,-3.792 -3.7926,-3.792 -2.0945,0 -3.7926,1.698 -3.7926,3.792 0,2.095 1.6981,3.793 3.7926,3.793 2.0945,0 3.7926,-1.698 3.7926,-3.793 z"
         style="fill:none;stroke:#000000;stroke-width:0.26835001;stroke-linecap:butt;stroke-linejoin:miter;stroke-miterlimit:10;stroke-dasharray:none;stroke-opacity:1"
         id="path598"
         inkscape:connector-curvature="0" /><path
         d="m 620.68876,635.45107 86.94528,0"
         style="fill:#000000;fill-opacity:1;fill-rule:evenodd;stroke:none"
         id="path600"
         inkscape:connector-curvature="0" /><path
         d="m 620.68876,635.45107 86.94528,0"
         style="fill:none;stroke:#000000;stroke-width:1.07340002;stroke-linecap:butt;stroke-linejoin:miter;stroke-miterlimit:10;stroke-dasharray:none;stroke-opacity:1"
         id="path602"
         inkscape:connector-curvature="0" /></g><g
       id="g5574"
       transform="translate(4.5622047,0)"><path
         d="m 769.99874,620.24507 c 0,-8.062 -6.536,-14.598 -14.598,-14.598 -8.062,0 -14.599,6.536 -14.599,14.598 0,8.062 6.537,14.598 14.599,14.598 8.062,0 14.598,-6.536 14.598,-14.598 z"
         style="fill:none;stroke:#000000;stroke-width:1.07340002;stroke-linecap:butt;stroke-linejoin:miter;stroke-miterlimit:10;stroke-dasharray:none;stroke-opacity:1"
         id="path14"
         inkscape:connector-curvature="0" /><path
         d="m 771.10774,591.08407 c 0,-8.062 -6.536,-14.598 -14.598,-14.598 -8.062,0 -14.598,6.536 -14.598,14.598 0,8.062 6.536,14.598 14.598,14.598 8.062,0 14.598,-6.536 14.598,-14.598 z"
         style="fill:none;stroke:#000000;stroke-width:1.07340002;stroke-linecap:butt;stroke-linejoin:miter;stroke-miterlimit:10;stroke-dasharray:none;stroke-opacity:1"
         id="path18"
         inkscape:connector-curvature="0" /><g
         transform="matrix(0.1,0,0,0.1,619.19774,181.40907)"
         id="g22"><g
           id="g24"
           clip-path="url(#clipPath26-5)"><path
             d="m 1050.74,4538.63 161.01,0"
             style="fill:none;stroke:#000000;stroke-width:2.68350005;stroke-linecap:butt;stroke-linejoin:miter;stroke-miterlimit:10;stroke-dasharray:none;stroke-opacity:1"
             id="path30"
             inkscape:connector-curvature="0" /></g></g><path
         d="m 721.76774,641.71307 18.032,-6.441 -18.032,-6.44 3.005,6.44 -3.005,6.441"
         style="fill:#000000;fill-opacity:1;fill-rule:evenodd;stroke:none"
         id="path32"
         inkscape:connector-curvature="0" /><path
         d="m 721.76774,641.71307 18.032,-6.441 -18.032,-6.44 3.005,6.44 -3.005,6.441 z"
         style="fill:none;stroke:#000000;stroke-width:0.26835001;stroke-linecap:butt;stroke-linejoin:miter;stroke-miterlimit:10;stroke-dasharray:none;stroke-opacity:1"
         id="path34"
         inkscape:connector-curvature="0" /><g
         transform="matrix(0.1,0,0,0.1,619.19774,181.40907)"
         id="g36"><g
           id="g38"
           clip-path="url(#clipPath40-5)"><path
             d="m 1587.44,4538.63 161.01,0"
             style="fill:none;stroke:#000000;stroke-width:2.68350005;stroke-linecap:butt;stroke-linejoin:miter;stroke-miterlimit:10;stroke-dasharray:none;stroke-opacity:1"
             id="path44"
             inkscape:connector-curvature="0" /></g></g><path
         d="m 775.43674,641.71307 18.034,-6.441 -18.034,-6.44 3.006,6.44 -3.006,6.441"
         style="fill:#000000;fill-opacity:1;fill-rule:evenodd;stroke:none"
         id="path46"
         inkscape:connector-curvature="0" /><path
         d="m 775.43674,641.71307 18.034,-6.441 -18.034,-6.44 3.006,6.44 -3.006,6.441 z"
         style="fill:none;stroke:#000000;stroke-width:0.26835001;stroke-linecap:butt;stroke-linejoin:miter;stroke-miterlimit:10;stroke-dasharray:none;stroke-opacity:1"
         id="path48"
         inkscape:connector-curvature="0" /><path
         d="m 759.33574,635.27207 c 0,-2.094 -1.698,-3.792 -3.792,-3.792 -2.095,0 -3.793,1.698 -3.793,3.792 0,2.095 1.698,3.793 3.793,3.793 2.094,0 3.792,-1.698 3.792,-3.793"
         style="fill:#000000;fill-opacity:1;fill-rule:evenodd;stroke:none"
         id="path752"
         inkscape:connector-curvature="0" /><path
         d="m 759.33574,635.27207 c 0,-2.094 -1.698,-3.792 -3.792,-3.792 -2.095,0 -3.793,1.698 -3.793,3.792 0,2.095 1.698,3.793 3.793,3.793 2.094,0 3.792,-1.698 3.792,-3.793 z"
         style="fill:none;stroke:#000000;stroke-width:0.26835001;stroke-linecap:butt;stroke-linejoin:miter;stroke-miterlimit:10;stroke-dasharray:none;stroke-opacity:1"
         id="path754"
         inkscape:connector-curvature="0" /><path
         d="m 717.29464,635.34407 86.9451,0"
         style="fill:#000000;fill-opacity:1;fill-rule:evenodd;stroke:none"
         id="path772"
         inkscape:connector-curvature="0" /><path
         d="m 717.29464,635.34407 86.9451,0"
         style="fill:none;stroke:#000000;stroke-width:1.07340002;stroke-linecap:butt;stroke-linejoin:miter;stroke-miterlimit:10;stroke-dasharray:none;stroke-opacity:1"
         id="path774"
         inkscape:connector-curvature="0" /><path
         d="m 759.04974,605.43207 c 0,-2.094 -1.698,-3.793 -3.793,-3.793 -2.094,0 -3.792,1.699 -3.792,3.793 0,2.095 1.698,3.793 3.792,3.793 2.095,0 3.793,-1.698 3.793,-3.793"
         style="fill:#000000;fill-opacity:1;fill-rule:evenodd;stroke:none"
         id="path796"
         inkscape:connector-curvature="0" /><path
         d="m 759.04974,605.43207 c 0,-2.094 -1.698,-3.793 -3.793,-3.793 -2.094,0 -3.792,1.699 -3.792,3.793 0,2.095 1.698,3.793 3.792,3.793 2.095,0 3.793,-1.698 3.793,-3.793 z"
         style="fill:none;stroke:#000000;stroke-width:0.26835001;stroke-linecap:butt;stroke-linejoin:miter;stroke-miterlimit:10;stroke-dasharray:none;stroke-opacity:1"
         id="path798"
         inkscape:connector-curvature="0" /></g><g
       id="g5554"
       transform="translate(9.6000063,0)"><path
         d="m 888.46574,663.18107 c 0,-14.801 -11.998,-26.799 -26.799,-26.799 -14.801,0 -26.799,11.998 -26.799,26.799 0,14.801 11.998,26.799 26.799,26.799 14.801,0 26.799,-11.998 26.799,-26.799 z"
         style="fill:none;stroke:#000000;stroke-width:1.07340002;stroke-linecap:butt;stroke-linejoin:miter;stroke-miterlimit:10;stroke-dasharray:none;stroke-opacity:1"
         id="path66"
         inkscape:connector-curvature="0" /><path
         d="m 875.65674,674.16507 c 0,-8.062 -6.536,-14.598 -14.598,-14.598 -8.062,0 -14.598,6.536 -14.598,14.598 0,8.062 6.536,14.599 14.598,14.599 8.062,0 14.598,-6.537 14.598,-14.599 z"
         style="fill:none;stroke:#000000;stroke-width:1.07340002;stroke-linecap:butt;stroke-linejoin:miter;stroke-miterlimit:10;stroke-dasharray:none;stroke-opacity:1"
         id="path82"
         inkscape:connector-curvature="0" /><g
         transform="matrix(0.1,0,0,0.1,619.19774,181.40907)"
         id="g84"><g
           id="g86"
           clip-path="url(#clipPath88-0)"><path
             d="m 2108.04,4541.14 161.01,0"
             style="fill:none;stroke:#000000;stroke-width:2.68350005;stroke-linecap:butt;stroke-linejoin:miter;stroke-miterlimit:10;stroke-dasharray:none;stroke-opacity:1"
             id="path92"
             inkscape:connector-curvature="0" /></g></g><path
         d="m 827.49674,641.96307 18.033,-6.44 -18.033,-6.441 3.006,6.441 -3.006,6.44"
         style="fill:#000000;fill-opacity:1;fill-rule:evenodd;stroke:none"
         id="path94"
         inkscape:connector-curvature="0" /><path
         d="m 827.49674,641.96307 18.033,-6.44 -18.033,-6.441 3.006,6.441 -3.006,6.44 z"
         style="fill:none;stroke:#000000;stroke-width:0.26835001;stroke-linecap:butt;stroke-linejoin:miter;stroke-miterlimit:10;stroke-dasharray:none;stroke-opacity:1"
         id="path96"
         inkscape:connector-curvature="0" /><g
         transform="matrix(0.1,0,0,0.1,619.19774,181.40907)"
         id="g98"><g
           id="g100"
           clip-path="url(#clipPath102-7)"><path
             d="m 2644.74,4541.14 161.01,0"
             style="fill:none;stroke:#000000;stroke-width:2.68350005;stroke-linecap:butt;stroke-linejoin:miter;stroke-miterlimit:10;stroke-dasharray:none;stroke-opacity:1"
             id="path106"
             inkscape:connector-curvature="0" /></g></g><path
         d="m 881.16674,641.96307 18.033,-6.44 -18.033,-6.441 3.006,6.441 -3.006,6.44"
         style="fill:#000000;fill-opacity:1;fill-rule:evenodd;stroke:none"
         id="path108"
         inkscape:connector-curvature="0" /><path
         d="m 881.16674,641.96307 18.033,-6.44 -18.033,-6.441 3.006,6.441 -3.006,6.44 z"
         style="fill:none;stroke:#000000;stroke-width:0.26835001;stroke-linecap:butt;stroke-linejoin:miter;stroke-miterlimit:10;stroke-dasharray:none;stroke-opacity:1"
         id="path110"
         inkscape:connector-curvature="0" /><path
         d="m 864.92274,688.65607 c 0,-2.094 -1.698,-3.792 -3.793,-3.792 -2.094,0 -3.792,1.698 -3.792,3.792 0,2.095 1.698,3.793 3.792,3.793 2.095,0 3.793,-1.698 3.793,-3.793"
         style="fill:#000000;fill-opacity:1;fill-rule:evenodd;stroke:none"
         id="path624"
         inkscape:connector-curvature="0" /><path
         d="m 864.92274,688.65607 c 0,-2.094 -1.698,-3.792 -3.793,-3.792 -2.094,0 -3.792,1.698 -3.792,3.792 0,2.095 1.698,3.793 3.792,3.793 2.095,0 3.793,-1.698 3.793,-3.793 z"
         style="fill:none;stroke:#000000;stroke-width:0.26835001;stroke-linecap:butt;stroke-linejoin:miter;stroke-miterlimit:10;stroke-dasharray:none;stroke-opacity:1"
         id="path626"
         inkscape:connector-curvature="0" /><path
         d="m 823.02474,635.45107 86.945,0"
         style="fill:#000000;fill-opacity:1;fill-rule:evenodd;stroke:none"
         id="path764"
         inkscape:connector-curvature="0" /><path
         d="m 823.02474,635.45107 86.945,0"
         style="fill:none;stroke:#000000;stroke-width:1.07340002;stroke-linecap:butt;stroke-linejoin:miter;stroke-miterlimit:10;stroke-dasharray:none;stroke-opacity:1"
         id="path766"
         inkscape:connector-curvature="0" /><path
         d="m 865.06574,635.52307 c 0,-2.094 -1.698,-3.793 -3.792,-3.793 -2.095,0 -3.793,1.699 -3.793,3.793 0,2.095 1.698,3.793 3.793,3.793 2.094,0 3.792,-1.698 3.792,-3.793"
         style="fill:#000000;fill-opacity:1;fill-rule:evenodd;stroke:none"
         id="path808"
         inkscape:connector-curvature="0" /><path
         d="m 865.06574,635.52307 c 0,-2.094 -1.698,-3.793 -3.792,-3.793 -2.095,0 -3.793,1.699 -3.793,3.793 0,2.095 1.698,3.793 3.793,3.793 2.094,0 3.792,-1.698 3.792,-3.793 z"
         style="fill:none;stroke:#000000;stroke-width:0.26835001;stroke-linecap:butt;stroke-linejoin:miter;stroke-miterlimit:10;stroke-dasharray:none;stroke-opacity:1"
         id="path810"
         inkscape:connector-curvature="0" /></g></g></svg>