<?xml version="1.0" encoding="UTF-8" standalone="no"?>
<!-- Created with Inkscape (http://www.inkscape.org/) -->

<svg
   xmlns:dc="http://purl.org/dc/elements/1.1/"
   xmlns:cc="http://creativecommons.org/ns#"
   xmlns:rdf="http://www.w3.org/1999/02/22-rdf-syntax-ns#"
   xmlns:svg="http://www.w3.org/2000/svg"
   xmlns="http://www.w3.org/2000/svg"
   xmlns:sodipodi="http://sodipodi.sourceforge.net/DTD/sodipodi-0.dtd"
   xmlns:inkscape="http://www.inkscape.org/namespaces/inkscape"
   width="1.1061702in"
   height="1.1127657in"
   viewBox="0 0 99.555319 100.14891"
   id="svg5761"
   version="1.1"
   inkscape:version="0.91 r13725"
   sodipodi:docname="silly_2tangle.svg">
  <defs
     id="defs5763">
    <inkscape:path-effect
       effect="knot"
       id="path-effect4433"
       is_visible="true"
       interruption_width="3"
       prop_to_stroke_width="true"
       add_stroke_width="true"
       add_other_stroke_width="true"
       switcher_size="15"
       crossing_points_vector="" />
    <inkscape:path-effect
       effect="knot"
       id="path-effect3488"
       is_visible="true"
       interruption_width="3"
       prop_to_stroke_width="true"
       add_stroke_width="true"
       add_other_stroke_width="true"
       switcher_size="15"
       crossing_points_vector="" />
    <inkscape:path-effect
       effect="knot"
       id="path-effect3407"
       is_visible="true"
       interruption_width="3"
       prop_to_stroke_width="true"
       add_stroke_width="true"
       add_other_stroke_width="true"
       switcher_size="15"
       crossing_points_vector="254.88528 | 967.41323 | 0 | 2 | 0 | 3 | 0.84725948 | 1.7308326 | 1 | 269.86989 | 972.74419 | 0 | 1 | 2 | 2 | 1.6507064 | 0.50028321 | 1 | 263.83646 | 970.08542 | 0 | 2 | 1 | 10 | 1.2239892 | 4.5781003 | 1 | 269.34821 | 987.3704 | 0 | 2 | 3 | 6 | 2.2159658 | 2.7931527 | 1 | 274.87847 | 970.91099 | 1 | 2 | 3 | 1 | 0.56652917 | 0.81493555 | 1 | 251.71521 | 979.38904 | 1 | 2 | 0 | 4 | 0.2601605 | 2.1477342 | -1 | 281.67417 | 968.42367 | 1 | 2 | 4 | 8 | 0.65641251 | 3.5470558 | 1 | 262.57862 | 975.41289 | 1 | 2 | 1 | 11 | 0.40384531 | 4.6722245 | 1 | 279.19953 | 979.55435 | 2 | 2 | 0 | 7 | 0.63844821 | 3.1760755 | 1 | 265.10449 | 964.88286 | 2 | 2 | 2 | 9 | 1.2429566 | 4.4800864 | 1 | 259.23056 | 986.71613 | 2 | 2 | 5 | 12 | 2.4923302 | 4.8773943 | 1" />
    <marker
       inkscape:stockid="Arrow1Mstart"
       orient="auto"
       refY="0"
       refX="0"
       id="Arrow1Mstart"
       style="overflow:visible"
       inkscape:isstock="true">
      <path
         id="path5006"
         d="M 0,0 5,-5 -12.5,0 5,5 0,0 Z"
         style="fill:#000000;fill-opacity:1;fill-rule:evenodd;stroke:#000000;stroke-width:1pt;stroke-opacity:1"
         transform="matrix(0.4,0,0,0.4,4,0)"
         inkscape:connector-curvature="0" />
    </marker>
    <marker
       inkscape:stockid="Club"
       orient="auto"
       refY="0"
       refX="0"
       id="Club"
       style="overflow:visible"
       inkscape:isstock="true">
      <path
         id="path5229"
         d="m -1.5971367,-7.0977635 c -1.8892507,0 -3.426382,1.5371314 -3.426382,3.4263822 0,0.6566798 0.2383531,1.2269257 0.5594092,1.7481542 -0.038751,0.032111 -0.079672,0.058463 -0.1165436,0.093235 -0.6224234,-0.8549928 -1.5893983,-1.4451409 -2.7271199,-1.4451409 -1.8892515,-1e-7 -3.426382,1.5371314 -3.426382,3.42638214 0,1.88925076 1.5371305,3.42638216 3.426382,3.42638216 0.9934462,0 1.868619,-0.4420611 2.4940326,-1.1188187 -0.124687,0.3548915 -0.2097783,0.7214874 -0.2097783,1.1188187 0,1.8892506 1.5371313,3.4263822 3.426382,3.4263822 1.88925064,0 3.4263821,-1.5371316 3.4263821,-3.4263822 0,-0.7933959 -0.3155586,-1.4938285 -0.7691878,-2.0744763 C 2.4152718,1.7663868 3.7718375,2.2973711 4.7661444,3.8340272 4.0279463,3.0958289 3.5540908,1.7534117 3.5540908,-0.05852936 l -0.6293354,-0.04661745 0.5827179,-0.0233087 c 0,-1.81194109 0.4505466,-3.15435829 1.188745,-3.89255659 -0.9590906,1.4822308 -2.2571634,2.0263625 -3.5662345,2.3075635 0.4041964,-0.5619092 0.6992616,-1.213407 0.6992616,-1.9579327 0,-1.8892506 -1.53713146,-3.4263822 -3.4263821,-3.4263822 z"
         style="fill:#000000;fill-opacity:1;fill-rule:evenodd;stroke:#000000;stroke-width:0.74587913pt;stroke-opacity:1"
         transform="scale(0.6,0.6)"
         inkscape:connector-curvature="0" />
    </marker>
    <marker
       inkscape:stockid="Arrow1Mend"
       orient="auto"
       refY="0"
       refX="0"
       id="Arrow1Mend"
       style="overflow:visible"
       inkscape:isstock="true">
      <path
         id="path5009"
         d="M 0,0 5,-5 -12.5,0 5,5 0,0 Z"
         style="fill:#000000;fill-opacity:1;fill-rule:evenodd;stroke:#000000;stroke-width:1pt;stroke-opacity:1"
         transform="matrix(-0.4,0,0,-0.4,-4,0)"
         inkscape:connector-curvature="0" />
    </marker>
    <marker
       inkscape:stockid="Arrow2Lstart"
       orient="auto"
       refY="0"
       refX="0"
       id="Arrow2Lstart"
       style="overflow:visible"
       inkscape:isstock="true">
      <path
         id="path5018"
         style="fill:#000000;fill-opacity:1;fill-rule:evenodd;stroke:#000000;stroke-width:0.625;stroke-linejoin:round;stroke-opacity:1"
         d="M 8.7185878,4.0337352 -2.2072895,0.01601326 8.7185884,-4.0017078 c -1.7454984,2.3720609 -1.7354408,5.6174519 -6e-7,8.035443 z"
         transform="matrix(1.1,0,0,1.1,1.1,0)"
         inkscape:connector-curvature="0" />
    </marker>
    <marker
       inkscape:stockid="Arrow1Lstart"
       orient="auto"
       refY="0"
       refX="0"
       id="Arrow1Lstart"
       style="overflow:visible"
       inkscape:isstock="true">
      <path
         id="path5000"
         d="M 0,0 5,-5 -12.5,0 5,5 0,0 Z"
         style="fill:#000000;fill-opacity:1;fill-rule:evenodd;stroke:#000000;stroke-width:1pt;stroke-opacity:1"
         transform="matrix(0.8,0,0,0.8,10,0)"
         inkscape:connector-curvature="0" />
    </marker>
    <marker
       inkscape:stockid="Arrow2Sstart"
       orient="auto"
       refY="0"
       refX="0"
       id="Arrow2Sstart"
       style="overflow:visible"
       inkscape:isstock="true">
      <path
         id="path5030"
         style="fill:#000000;fill-opacity:1;fill-rule:evenodd;stroke:#000000;stroke-width:0.625;stroke-linejoin:round;stroke-opacity:1"
         d="M 8.7185878,4.0337352 -2.2072895,0.01601326 8.7185884,-4.0017078 c -1.7454984,2.3720609 -1.7354408,5.6174519 -6e-7,8.035443 z"
         transform="matrix(0.3,0,0,0.3,-0.69,0)"
         inkscape:connector-curvature="0" />
    </marker>
    <marker
       inkscape:stockid="Arrow2Mstart"
       orient="auto"
       refY="0"
       refX="0"
       id="Arrow2Mstart"
       style="overflow:visible"
       inkscape:isstock="true">
      <path
         id="path5024"
         style="fill:#000000;fill-opacity:1;fill-rule:evenodd;stroke:#000000;stroke-width:0.625;stroke-linejoin:round;stroke-opacity:1"
         d="M 8.7185878,4.0337352 -2.2072895,0.01601326 8.7185884,-4.0017078 c -1.7454984,2.3720609 -1.7354408,5.6174519 -6e-7,8.035443 z"
         transform="scale(0.6,0.6)"
         inkscape:connector-curvature="0" />
    </marker>
    <inkscape:path-effect
       effect="knot"
       id="path-effect5771"
       is_visible="true"
       interruption_width="7"
       prop_to_stroke_width="true"
       add_stroke_width="true"
       add_other_stroke_width="true"
       switcher_size="15"
       crossing_points_vector="294.00653 | 973.01342 | 0 | 0 | 0 | 1 | 0.421918 | 2.7491081 | -1 | 249.88935 | 959.00668 | 0 | 0 | 3 | 6 | 3.5204856 | 5.6927446 | 1 | 229.93771 | 953.6207 | 0 | 0 | 4 | 11 | 3.843141 | 12.513988 | 1 | 275.94508 | 961.42686 | 0 | 0 | 2 | 15 | 3.1872397 | 15.316745 | 1 | 254.28311 | 938.70651 | 0 | 0 | 5 | 10 | 5.2099886 | 11.71056 | -1 | 227.4408 | 981.94472 | 0 | 0 | 7 | 12 | 6.5622251 | 13.282639 | 1 | 230.51654 | 997.30932 | 0 | 0 | 8 | 13 | 7.3134065 | 13.495357 | 1 | 260.81202 | 995.99473 | 0 | 0 | 9 | 14 | 7.9117577 | 14.560454 | 1" />
  </defs>
  <sodipodi:namedview
     id="base"
     pagecolor="#ffffff"
     bordercolor="#666666"
     borderopacity="1.0"
     inkscape:pageopacity="0.0"
     inkscape:pageshadow="2"
     inkscape:zoom="6.1198265"
     inkscape:cx="41.103757"
     inkscape:cy="57.143456"
     inkscape:document-units="in"
     inkscape:current-layer="layer1"
     showgrid="false"
     units="in"
     fit-margin-top="0"
     fit-margin-left="0"
     fit-margin-right="0"
     fit-margin-bottom="0"
     inkscape:window-width="1920"
     inkscape:window-height="1176"
     inkscape:window-x="0"
     inkscape:window-y="24"
     inkscape:window-maximized="1" />
  <metadata
     id="metadata5766">
    <rdf:RDF>
      <cc:Work
         rdf:about="">
        <dc:format>image/svg+xml</dc:format>
        <dc:type
           rdf:resource="http://purl.org/dc/dcmitype/StillImage" />
        <dc:title></dc:title>
      </cc:Work>
    </rdf:RDF>
  </metadata>
  <g
     inkscape:label="Layer 1"
     inkscape:groupmode="layer"
     id="layer1"
     transform="translate(-218.95043,-930.17227)">
    <path
       style="fill:none;fill-rule:evenodd;stroke:#000000;stroke-width:0.99000007;stroke-linecap:butt;stroke-linejoin:miter;stroke-miterlimit:4;stroke-dasharray:none;stroke-opacity:1"
       d="m 270.25548,1018.4081 c 0,0 -21.24243,-7.5165 -13.56248,-23.85691 4.89936,-10.42416 14.58671,-7.01633 23.29253,-7.76387 m 4.89366,-1.02804 c 3.03666,-1.13215 5.77956,-3.33369 7.92595,-7.54842 8.98718,-17.64756 -12.74546,-31.86365 -24.6739,-18.95479 -5.78245,6.25772 -6.80346,16.85451 -4.608,25.98271 m 1.47803,4.72419 c 2.91428,7.4406 8.1261,12.92173 14.5682,12.43163 11.10659,-0.845 1.60987,-26.30709 -11.95034,-38.16655 m -3.9903,-2.99763 c -3.6577,-2.2962 -7.4803,-3.44501 -11.18432,-2.79136 -13.01412,2.29661 -10.51113,-8.94766 -7.4321,-16.63629"
       id="path4431"
       inkscape:connector-curvature="0"
       inkscape:path-effect="#path-effect4433"
       inkscape:original-d="m 270.25548,1018.4081 c 0,0 -21.24243,-7.5165 -13.56248,-23.85691 7.67996,-16.34033 27.12495,1.30723 36.11214,-16.34033 8.98718,-17.64756 -12.74546,-31.86365 -24.6739,-18.95479 -11.92845,12.90887 -3.59488,44.28233 11.43823,43.13853 15.0331,-1.1438 -7.67996,-47.38701 -27.12496,-43.95554 -19.44499,3.43147 -4.24848,-23.36668 -4.24848,-23.36668" />
  </g>
</svg>
