<?xml version="1.0" encoding="UTF-8" standalone="no"?>
<!-- Created with Inkscape (http://www.inkscape.org/) -->

<svg
   xmlns:dc="http://purl.org/dc/elements/1.1/"
   xmlns:cc="http://creativecommons.org/ns#"
   xmlns:rdf="http://www.w3.org/1999/02/22-rdf-syntax-ns#"
   xmlns:svg="http://www.w3.org/2000/svg"
   xmlns="http://www.w3.org/2000/svg"
   xmlns:sodipodi="http://sodipodi.sourceforge.net/DTD/sodipodi-0.dtd"
   xmlns:inkscape="http://www.inkscape.org/namespaces/inkscape"
   width="1.1061702in"
   height="1.1127657in"
   viewBox="0 0 99.555319 100.14891"
   id="svg5761"
   version="1.1"
   inkscape:version="0.91 r"
   sodipodi:docname="8x_tref.svg">
  <defs
     id="defs5763">
    <marker
       inkscape:stockid="Arrow1Mstart"
       orient="auto"
       refY="0"
       refX="0"
       id="Arrow1Mstart"
       style="overflow:visible"
       inkscape:isstock="true">
      <path
         id="path5006"
         d="M 0,0 5,-5 -12.5,0 5,5 0,0 Z"
         style="fill:#000000;fill-opacity:1;fill-rule:evenodd;stroke:#000000;stroke-width:1pt;stroke-opacity:1"
         transform="matrix(0.4,0,0,0.4,4,0)"
         inkscape:connector-curvature="0" />
    </marker>
    <marker
       inkscape:stockid="Club"
       orient="auto"
       refY="0"
       refX="0"
       id="Club"
       style="overflow:visible"
       inkscape:isstock="true">
      <path
         id="path5229"
         d="m -1.5971367,-7.0977635 c -1.8892507,0 -3.426382,1.5371314 -3.426382,3.4263822 0,0.6566798 0.2383531,1.2269257 0.5594092,1.7481542 -0.038751,0.032111 -0.079672,0.058463 -0.1165436,0.093235 -0.6224234,-0.8549928 -1.5893983,-1.4451409 -2.7271199,-1.4451409 -1.8892515,-1e-7 -3.426382,1.5371314 -3.426382,3.42638214 0,1.88925076 1.5371305,3.42638216 3.426382,3.42638216 0.9934462,0 1.868619,-0.4420611 2.4940326,-1.1188187 -0.124687,0.3548915 -0.2097783,0.7214874 -0.2097783,1.1188187 0,1.8892506 1.5371313,3.4263822 3.426382,3.4263822 1.88925064,0 3.4263821,-1.5371316 3.4263821,-3.4263822 0,-0.7933959 -0.3155586,-1.4938285 -0.7691878,-2.0744763 C 2.4152718,1.7663868 3.7718375,2.2973711 4.7661444,3.8340272 4.0279463,3.0958289 3.5540908,1.7534117 3.5540908,-0.05852936 l -0.6293354,-0.04661745 0.5827179,-0.0233087 c 0,-1.81194109 0.4505466,-3.15435829 1.188745,-3.89255659 -0.9590906,1.4822308 -2.2571634,2.0263625 -3.5662345,2.3075635 0.4041964,-0.5619092 0.6992616,-1.213407 0.6992616,-1.9579327 0,-1.8892506 -1.53713146,-3.4263822 -3.4263821,-3.4263822 z"
         style="fill:#000000;fill-opacity:1;fill-rule:evenodd;stroke:#000000;stroke-width:0.74587913pt;stroke-opacity:1"
         transform="scale(0.6,0.6)"
         inkscape:connector-curvature="0" />
    </marker>
    <marker
       inkscape:stockid="Arrow1Mend"
       orient="auto"
       refY="0"
       refX="0"
       id="Arrow1Mend"
       style="overflow:visible"
       inkscape:isstock="true">
      <path
         id="path5009"
         d="M 0,0 5,-5 -12.5,0 5,5 0,0 Z"
         style="fill:#000000;fill-opacity:1;fill-rule:evenodd;stroke:#000000;stroke-width:1pt;stroke-opacity:1"
         transform="matrix(-0.4,0,0,-0.4,-4,0)"
         inkscape:connector-curvature="0" />
    </marker>
    <marker
       inkscape:stockid="Arrow2Lstart"
       orient="auto"
       refY="0"
       refX="0"
       id="Arrow2Lstart"
       style="overflow:visible"
       inkscape:isstock="true">
      <path
         id="path5018"
         style="fill:#000000;fill-opacity:1;fill-rule:evenodd;stroke:#000000;stroke-width:0.625;stroke-linejoin:round;stroke-opacity:1"
         d="M 8.7185878,4.0337352 -2.2072895,0.01601326 8.7185884,-4.0017078 c -1.7454984,2.3720609 -1.7354408,5.6174519 -6e-7,8.035443 z"
         transform="matrix(1.1,0,0,1.1,1.1,0)"
         inkscape:connector-curvature="0" />
    </marker>
    <marker
       inkscape:stockid="Arrow1Lstart"
       orient="auto"
       refY="0"
       refX="0"
       id="Arrow1Lstart"
       style="overflow:visible"
       inkscape:isstock="true">
      <path
         id="path5000"
         d="M 0,0 5,-5 -12.5,0 5,5 0,0 Z"
         style="fill:#000000;fill-opacity:1;fill-rule:evenodd;stroke:#000000;stroke-width:1pt;stroke-opacity:1"
         transform="matrix(0.8,0,0,0.8,10,0)"
         inkscape:connector-curvature="0" />
    </marker>
    <marker
       inkscape:stockid="Arrow2Sstart"
       orient="auto"
       refY="0"
       refX="0"
       id="Arrow2Sstart"
       style="overflow:visible"
       inkscape:isstock="true">
      <path
         id="path5030"
         style="fill:#000000;fill-opacity:1;fill-rule:evenodd;stroke:#000000;stroke-width:0.625;stroke-linejoin:round;stroke-opacity:1"
         d="M 8.7185878,4.0337352 -2.2072895,0.01601326 8.7185884,-4.0017078 c -1.7454984,2.3720609 -1.7354408,5.6174519 -6e-7,8.035443 z"
         transform="matrix(0.3,0,0,0.3,-0.69,0)"
         inkscape:connector-curvature="0" />
    </marker>
    <marker
       inkscape:stockid="Arrow2Mstart"
       orient="auto"
       refY="0"
       refX="0"
       id="Arrow2Mstart"
       style="overflow:visible"
       inkscape:isstock="true">
      <path
         id="path5024"
         style="fill:#000000;fill-opacity:1;fill-rule:evenodd;stroke:#000000;stroke-width:0.625;stroke-linejoin:round;stroke-opacity:1"
         d="M 8.7185878,4.0337352 -2.2072895,0.01601326 8.7185884,-4.0017078 c -1.7454984,2.3720609 -1.7354408,5.6174519 -6e-7,8.035443 z"
         transform="scale(0.6,0.6)"
         inkscape:connector-curvature="0" />
    </marker>
    <inkscape:path-effect
       effect="knot"
       id="path-effect5771"
       is_visible="true"
       interruption_width="7"
       prop_to_stroke_width="true"
       add_stroke_width="true"
       add_other_stroke_width="true"
       switcher_size="15"
       crossing_points_vector="295.17331 | 974.56407 | 0 | 0 | 0 | 3 | 0.29652108 | 2.6910483 | -1 | 272.28068 | 997.51159 | 0 | 0 | 1 | 10 | 0.58031935 | 7.2140982 | -1 | 302.28174 | 987.05363 | 0 | 0 | 2 | 11 | 2.2869074 | 8.0941586 | 1 | 240.09383 | 957.8862 | 0 | 0 | 6 | 7 | 3.6557099 | 5.5179217 | 1 | 257.83765 | 959.42925 | 0 | 0 | 5 | 12 | 3.4199225 | 11.396907 | 1 | 278.21348 | 962.0195 | 0 | 0 | 4 | 15 | 3.1549776 | 14.362894 | 1 | 229.48798 | 988.60797 | 0 | 0 | 8 | 13 | 6.1207066 | 12.380145 | 1 | 248.03289 | 996.34798 | 0 | 0 | 9 | 14 | 6.6230562 | 13.583719 | 1" />
  </defs>
  <sodipodi:namedview
     id="base"
     pagecolor="#ffffff"
     bordercolor="#666666"
     borderopacity="1.0"
     inkscape:pageopacity="0.0"
     inkscape:pageshadow="2"
     inkscape:zoom="4.0473066"
     inkscape:cx="49.793611"
     inkscape:cy="57.143456"
     inkscape:document-units="in"
     inkscape:current-layer="layer1"
     showgrid="false"
     units="in"
     fit-margin-top="0"
     fit-margin-left="0"
     fit-margin-right="0"
     fit-margin-bottom="0"
     inkscape:window-width="952"
     inkscape:window-height="1000"
     inkscape:window-x="960"
     inkscape:window-y="0"
     inkscape:window-maximized="0" />
  <metadata
     id="metadata5766">
    <rdf:RDF>
      <cc:Work
         rdf:about="">
        <dc:format>image/svg+xml</dc:format>
        <dc:type
           rdf:resource="http://purl.org/dc/dcmitype/StillImage" />
        <dc:title></dc:title>
      </cc:Work>
    </rdf:RDF>
  </metadata>
  <g
     inkscape:label="Layer 1"
     inkscape:groupmode="layer"
     id="layer1"
     transform="translate(-218.95043,-930.17227)">
    <path
       style="fill:none;fill-rule:evenodd;stroke:#000000;stroke-width:0.98624998;stroke-linecap:butt;stroke-linejoin:miter;stroke-miterlimit:3.70000005;stroke-dasharray:none;stroke-opacity:1;marker-start:url(#Arrow1Mstart)"
       inkscape:path-effect="#path-effect5771"
       inkscape:original-d="m 298.21189,954.21449 c 19.86496,18.72144 -58.23309,55.02291 -37.51258,72.79281 13.14543,11.2735 37.99976,-13.7136 42.01393,-30.55945 2.58077,-10.83046 -6.81968,-22.44298 -15.24844,-29.71725 -16.31568,-14.08092 -59.23677,0.6736 -61.22245,-20.78638 -0.84257,-9.10589 17.15301,-19.58968 23.91844,-13.43696 14.08876,12.81281 -30.77579,34.78737 -23.14203,52.23405 5.28063,12.06864 24.06701,12.10624 37.4026,12.76284 11.99019,0.5905 25.5448,-1.3629 34.85134,-8.10326 10.79935,-7.82154 20.35682,-21.02488 18.50821,-33.29182 -1.09785,-7.28497 -8.38494,-14.89508 -16.45876,-16.50794 -11.44881,-2.28709 -22.57517,6.5472 -32.3764,12.27855 -9.77231,5.71446 -18.54705,13.08821 -25.41932,21.49839 -9.49944,11.6253 -32.47505,29.77003 -20.91787,38.88203 15.45286,12.1834 28.15068,-27.70139 44.02686,-39.32778 9.87179,-7.22927 22.67197,-27.10975 31.57647,-18.71783 z"
       id="path5769"
       d="m 281.9236,958.48016 c 5.84516,-5.273 11.60544,-8.67896 16.28829,-4.26567 4.93795,4.6537 3.82277,10.39367 -0.32308,16.66526 m -5.64954,7.10318 c -15.84024,17.49209 -45.21676,37.29517 -31.53996,49.02437 13.14543,11.2735 37.99976,-13.7136 42.01393,-30.55945 2.58077,-10.83046 -6.81968,-22.44298 -15.24844,-29.71725 -5.49322,-4.74081 -14.00232,-6.21296 -22.9496,-6.89908 m -13.42474,-0.74983 c -1.94034,-0.11557 -3.83877,-0.25357 -5.6671,-0.44113 m -10.17757,-2.03387 c -5.05028,-1.80783 -8.47522,-4.95382 -9.00344,-10.66247 -0.84257,-9.10589 17.15301,-19.58968 23.91844,-13.43696 14.08876,12.81281 -30.77579,34.78737 -23.14203,52.23405 2.70797,6.18895 8.96764,9.21402 16.22258,10.78116 m 9.78212,1.35464 c 3.9469,0.3225 7.86381,0.45303 11.3979,0.62704 0.48423,0.0239 0.97101,0.0435 1.45996,0.0589 m 13.44511,-0.73533 c 7.005,-1.04127 13.75651,-3.20028 19.18243,-6.89077 m 7.4112,-6.21937 c 7.71269,-7.73264 13.31484,-17.96024 11.86085,-27.60856 -1.09785,-7.28497 -8.38494,-14.89508 -16.45876,-16.50794 -11.44881,-2.28709 -22.57517,6.5472 -32.3764,12.27855 -9.77231,5.71446 -18.54705,13.08821 -25.41932,21.49839 -2.88084,3.52554 -7.00108,7.65067 -11.0217,11.94162 m -5.93656,6.68621 c -6.35844,7.75337 -10.21119,15.3253 -3.95961,20.2542 15.45286,12.1834 28.15068,-27.70139 44.02686,-39.32778 2.52013,-1.84553 5.2311,-4.51555 8.01939,-7.32921"
       inkscape:connector-curvature="0"
       sodipodi:nodetypes="aaaaaaaaaaaaaaaa" />
  </g>
</svg>
