<?xml version="1.0" encoding="UTF-8"?>
<svg xmlns="http://www.w3.org/2000/svg" xmlns:xlink="http://www.w3.org/1999/xlink" width="361pt" height="250pt" viewBox="0 0 361 250" version="1.1">
<g id="surface4">
<path style="fill-rule:nonzero;fill:rgb(99.998474%,99.998474%,99.998474%);fill-opacity:1;stroke-width:0.03;stroke-linecap:butt;stroke-linejoin:miter;stroke:rgb(99.998474%,99.998474%,99.998474%);stroke-opacity:1;stroke-miterlimit:10;" d="M 74 262 L 434 262 L 434 13 L 74 13 Z " transform="matrix(1,0,0,1,-74,-13)"/>
<path style="fill:none;stroke-width:1;stroke-linecap:square;stroke-linejoin:miter;stroke:rgb(0%,0%,0%);stroke-opacity:1;stroke-miterlimit:3.25;" d="M 103.386719 13.722656 L 91.324219 13.722656 L 91.324219 37.847656 L 115.449219 37.847656 L 115.449219 25.785156 L 79.257812 25.785156 L 79.257812 49.914062 L 103.386719 49.914062 Z " transform="matrix(1,0,0,1,-74,-13)"/>
<path style="fill:none;stroke-width:1;stroke-linecap:square;stroke-linejoin:miter;stroke:rgb(0%,0%,0%);stroke-opacity:1;stroke-miterlimit:3.25;" d="M 142.058594 21.042969 L 142.058594 49.773438 L 170.765625 49.773438 L 170.765625 28.226562 L 156.410156 28.226562 L 156.410156 42.59375 L 163.589844 42.59375 L 163.589844 35.410156 L 127.707031 35.410156 L 127.707031 13.859375 L 149.234375 13.859375 L 149.234375 28.226562 L 134.882812 28.226562 L 134.882812 21.042969 Z " transform="matrix(1,0,0,1,-74,-13)"/>
<path style="fill:none;stroke-width:1;stroke-linecap:square;stroke-linejoin:miter;stroke:rgb(0%,0%,0%);stroke-opacity:1;stroke-miterlimit:3.25;" d="M 223.539062 18.367188 L 196.632812 18.367188 L 196.632812 45.269531 L 187.667969 45.269531 L 187.667969 27.335938 L 178.699219 27.335938 L 178.699219 36.300781 L 214.570312 36.300781 L 214.570312 27.335938 L 205.601562 27.335938 L 205.601562 45.269531 L 223.539062 45.269531 Z " transform="matrix(1,0,0,1,-74,-13)"/>
<path style="fill:none;stroke-width:1;stroke-linecap:square;stroke-linejoin:miter;stroke:rgb(0%,0%,0%);stroke-opacity:1;stroke-miterlimit:3.25;" d="M 234.90625 13.722656 L 234.90625 22.769531 L 271.09375 22.769531 L 271.09375 13.722656 L 262.046875 13.722656 L 262.046875 49.914062 L 234.90625 49.914062 L 234.90625 31.816406 L 253 31.816406 L 253 40.863281 L 243.953125 40.863281 L 243.953125 13.722656 Z " transform="matrix(1,0,0,1,-74,-13)"/>
<path style="fill:none;stroke-width:1;stroke-linecap:square;stroke-linejoin:miter;stroke:rgb(0%,0%,0%);stroke-opacity:1;stroke-miterlimit:3.25;" d="M 282.460938 26.214844 L 327.300781 26.214844 L 327.300781 37.421875 L 304.882812 37.421875 L 304.882812 48.632812 L 316.09375 48.632812 L 316.09375 15.003906 L 293.671875 15.003906 L 293.671875 37.421875 L 282.460938 37.421875 Z " transform="matrix(1,0,0,1,-74,-13)"/>
<path style="fill:none;stroke-width:1;stroke-linecap:square;stroke-linejoin:miter;stroke:rgb(0%,0%,0%);stroke-opacity:1;stroke-miterlimit:3.25;" d="M 365.8125 13.722656 L 365.8125 40.863281 L 347.71875 40.863281 L 347.71875 22.769531 L 356.765625 22.769531 L 356.765625 49.914062 L 374.859375 49.914062 L 374.859375 31.816406 L 338.667969 31.816406 L 338.667969 13.722656 Z " transform="matrix(1,0,0,1,-74,-13)"/>
<path style="fill:none;stroke-width:1;stroke-linecap:square;stroke-linejoin:miter;stroke:rgb(0%,0%,0%);stroke-opacity:1;stroke-miterlimit:3.25;" d="M 390.550781 13.722656 L 390.550781 49.914062 L 426.742188 49.914062 L 426.742188 31.816406 L 399.597656 31.816406 L 399.597656 22.769531 L 426.742188 22.769531 L 426.742188 13.722656 L 417.691406 13.722656 L 417.691406 40.863281 L 408.644531 40.863281 L 408.644531 13.722656 Z " transform="matrix(1,0,0,1,-74,-13)"/>
<path style="fill:none;stroke-width:1;stroke-linecap:square;stroke-linejoin:miter;stroke:rgb(0%,0%,0%);stroke-opacity:1;stroke-miterlimit:3.25;" d="M 114.167969 65.359375 L 114.167969 70.964844 L 86.144531 70.964844 L 86.144531 76.566406 L 91.75 76.566406 L 91.75 65.359375 L 80.539062 65.359375 L 80.539062 82.171875 L 97.355469 82.171875 L 97.355469 59.753906 L 74.933594 59.753906 L 74.933594 87.777344 L 102.957031 87.777344 L 102.957031 59.753906 L 119.773438 59.753906 L 119.773438 76.566406 L 108.5625 76.566406 L 108.5625 65.359375 Z " transform="matrix(1,0,0,1,-74,-13)"/>
<path style="fill:none;stroke-width:1;stroke-linecap:square;stroke-linejoin:miter;stroke:rgb(0%,0%,0%);stroke-opacity:1;stroke-miterlimit:3.25;" d="M 171.65625 90.582031 L 171.65625 68.160156 L 138.027344 68.160156 L 138.027344 90.582031 L 126.816406 90.582031 L 126.816406 79.371094 L 160.445312 79.371094 L 160.445312 56.949219 L 149.234375 56.949219 L 149.234375 90.582031 Z " transform="matrix(1,0,0,1,-74,-13)"/>
<path style="fill:none;stroke-width:1;stroke-linecap:square;stroke-linejoin:miter;stroke:rgb(0%,0%,0%);stroke-opacity:1;stroke-miterlimit:3.25;" d="M 185.105469 89.765625 L 185.105469 76.964844 L 178.699219 76.964844 L 178.699219 83.367188 L 217.132812 83.367188 L 217.132812 64.164062 L 197.914062 64.164062 L 197.914062 76.964844 L 210.726562 76.964844 L 210.726562 70.566406 L 204.320312 70.566406 L 204.320312 89.765625 L 223.539062 89.765625 L 223.539062 57.765625 L 191.507812 57.765625 L 191.507812 89.765625 Z " transform="matrix(1,0,0,1,-74,-13)"/>
<path style="fill:none;stroke-width:1;stroke-linecap:square;stroke-linejoin:miter;stroke:rgb(0%,0%,0%);stroke-opacity:1;stroke-miterlimit:3.25;" d="M 230.582031 58.835938 L 230.582031 88.695312 L 253 88.695312 L 253 66.300781 L 245.527344 66.300781 L 245.527344 81.230469 L 238.054688 81.230469 L 238.054688 73.765625 L 275.417969 73.765625 L 275.417969 66.300781 L 267.945312 66.300781 L 267.945312 81.230469 L 260.472656 81.230469 L 260.472656 58.835938 Z " transform="matrix(1,0,0,1,-74,-13)"/>
<path style="fill:none;stroke-width:1;stroke-linecap:square;stroke-linejoin:miter;stroke:rgb(0%,0%,0%);stroke-opacity:1;stroke-miterlimit:3.25;" d="M 325.863281 73.765625 L 325.863281 91.746094 L 301.882812 91.746094 L 301.882812 61.78125 L 295.890625 61.78125 L 295.890625 67.773438 L 307.878906 67.773438 L 307.878906 55.785156 L 283.898438 55.785156 L 283.898438 85.75 L 295.890625 85.75 L 295.890625 73.765625 L 289.894531 73.765625 L 289.894531 79.757812 L 319.871094 79.757812 L 319.871094 85.75 L 313.875 85.75 L 313.875 73.765625 Z " transform="matrix(1,0,0,1,-74,-13)"/>
<path style="fill:none;stroke-width:1;stroke-linecap:square;stroke-linejoin:miter;stroke:rgb(0%,0%,0%);stroke-opacity:1;stroke-miterlimit:3.25;" d="M 379.183594 67.371094 L 340.75 67.371094 L 340.75 73.765625 L 347.15625 73.765625 L 347.15625 60.976562 L 334.34375 60.976562 L 334.34375 80.160156 L 353.5625 80.160156 L 353.5625 60.976562 L 366.371094 60.976562 L 366.371094 80.160156 L 372.777344 80.160156 L 372.777344 73.765625 L 359.96875 73.765625 L 359.96875 86.554688 L 379.183594 86.554688 Z " transform="matrix(1,0,0,1,-74,-13)"/>
<path style="fill:none;stroke-width:1;stroke-linecap:square;stroke-linejoin:miter;stroke:rgb(0%,0%,0%);stroke-opacity:1;stroke-miterlimit:3.25;" d="M 405.445312 60.976562 L 405.445312 67.371094 L 386.226562 67.371094 L 386.226562 86.554688 L 411.847656 86.554688 L 411.847656 60.976562 L 431.066406 60.976562 L 431.066406 80.160156 L 418.253906 80.160156 L 418.253906 67.371094 L 424.660156 67.371094 L 424.660156 73.765625 L 392.632812 73.765625 L 392.632812 80.160156 L 399.039062 80.160156 L 399.039062 60.976562 Z " transform="matrix(1,0,0,1,-74,-13)"/>
<path style="fill:none;stroke-width:1;stroke-linecap:square;stroke-linejoin:miter;stroke:rgb(0%,0%,0%);stroke-opacity:1;stroke-miterlimit:3.25;" d="M 104.53125 97.757812 L 75.824219 97.757812 L 75.824219 133.671875 L 90.175781 133.671875 L 90.175781 119.304688 L 83 119.304688 L 83 126.488281 L 118.882812 126.488281 L 118.882812 119.304688 L 111.707031 119.304688 L 111.707031 133.671875 L 97.355469 133.671875 L 97.355469 104.9375 L 90.175781 104.9375 L 90.175781 112.121094 L 104.53125 112.121094 Z " transform="matrix(1,0,0,1,-74,-13)"/>
<path style="fill:none;stroke-width:1;stroke-linecap:square;stroke-linejoin:miter;stroke:rgb(0%,0%,0%);stroke-opacity:1;stroke-miterlimit:3.25;" d="M 139.628906 102.921875 L 139.628906 115.714844 L 133.222656 115.714844 L 133.222656 109.320312 L 158.84375 109.320312 L 158.84375 102.921875 L 152.4375 102.921875 L 152.4375 122.109375 L 146.03125 122.109375 L 146.03125 115.714844 L 171.65625 115.714844 L 171.65625 109.320312 L 165.25 109.320312 L 165.25 128.503906 L 126.816406 128.503906 L 126.816406 102.921875 Z " transform="matrix(1,0,0,1,-74,-13)"/>
<path style="fill:none;stroke-width:1;stroke-linecap:square;stroke-linejoin:miter;stroke:rgb(0%,0%,0%);stroke-opacity:1;stroke-miterlimit:3.25;" d="M 213.179688 121.746094 L 195.085938 121.746094 L 195.085938 115.714844 L 201.117188 115.714844 L 201.117188 133.808594 L 219.210938 133.808594 L 219.210938 97.617188 L 189.054688 97.617188 L 189.054688 115.714844 L 183.023438 115.714844 L 183.023438 109.683594 L 213.179688 109.683594 L 213.179688 103.652344 L 207.148438 103.652344 L 207.148438 127.777344 L 213.179688 127.777344 Z " transform="matrix(1,0,0,1,-74,-13)"/>
<path style="fill:none;stroke-width:1;stroke-linecap:square;stroke-linejoin:miter;stroke:rgb(0%,0%,0%);stroke-opacity:1;stroke-miterlimit:3.25;" d="M 275.417969 104.503906 L 253 104.503906 L 253 126.921875 L 245.527344 126.921875 L 245.527344 111.976562 L 238.054688 111.976562 L 238.054688 126.921875 L 230.582031 126.921875 L 230.582031 119.449219 L 267.945312 119.449219 L 267.945312 111.976562 L 260.472656 111.976562 L 260.472656 126.921875 L 275.417969 126.921875 Z " transform="matrix(1,0,0,1,-74,-13)"/>
<path style="fill:none;stroke-width:1;stroke-linecap:square;stroke-linejoin:miter;stroke:rgb(0%,0%,0%);stroke-opacity:1;stroke-miterlimit:3.25;" d="M 301.261719 112.09375 L 286.789062 112.09375 L 286.789062 133.808594 L 308.5 133.808594 L 308.5 97.617188 L 301.261719 97.617188 L 301.261719 104.855469 L 315.738281 104.855469 L 315.738281 126.570312 L 322.976562 126.570312 L 322.976562 119.332031 L 294.027344 119.332031 L 294.027344 126.570312 L 301.261719 126.570312 Z " transform="matrix(1,0,0,1,-74,-13)"/>
<path style="fill:none;stroke-width:1;stroke-linecap:square;stroke-linejoin:miter;stroke:rgb(0%,0%,0%);stroke-opacity:1;stroke-miterlimit:3.25;" d="M 379.183594 123.179688 L 379.183594 100.785156 L 349.289062 100.785156 L 349.289062 123.179688 L 341.816406 123.179688 L 341.816406 108.25 L 334.34375 108.25 L 334.34375 115.714844 L 371.710938 115.714844 L 371.710938 108.25 L 364.238281 108.25 L 364.238281 130.644531 L 356.765625 130.644531 L 356.765625 123.179688 Z " transform="matrix(1,0,0,1,-74,-13)"/>
<path style="fill:none;stroke-width:1;stroke-linecap:square;stroke-linejoin:miter;stroke:rgb(0%,0%,0%);stroke-opacity:1;stroke-miterlimit:3.25;" d="M 431.066406 115.714844 L 431.066406 108.25 L 423.59375 108.25 L 423.59375 130.644531 L 393.699219 130.644531 L 393.699219 100.785156 L 386.226562 100.785156 L 386.226562 108.25 L 416.121094 108.25 L 416.121094 100.785156 L 408.644531 100.785156 L 408.644531 123.179688 L 401.171875 123.179688 L 401.171875 115.714844 Z " transform="matrix(1,0,0,1,-74,-13)"/>
<path style="fill:none;stroke-width:1;stroke-linecap:square;stroke-linejoin:miter;stroke:rgb(0%,0%,0%);stroke-opacity:1;stroke-miterlimit:3.25;" d="M 115.449219 139.566406 L 106.402344 139.566406 L 106.402344 157.660156 L 97.355469 157.660156 L 97.355469 139.566406 L 88.308594 139.566406 L 88.308594 175.753906 L 97.355469 175.753906 L 97.355469 166.707031 L 79.257812 166.707031 L 79.257812 148.613281 L 115.449219 148.613281 Z " transform="matrix(1,0,0,1,-74,-13)"/>
<path style="fill:none;stroke-width:1;stroke-linecap:square;stroke-linejoin:miter;stroke:rgb(0%,0%,0%);stroke-opacity:1;stroke-miterlimit:3.25;" d="M 171.65625 174.476562 L 171.65625 163.265625 L 149.234375 163.265625 L 149.234375 140.847656 L 138.027344 140.847656 L 138.027344 163.265625 L 126.816406 163.265625 L 126.816406 152.054688 L 171.65625 152.054688 L 171.65625 140.847656 L 160.445312 140.847656 L 160.445312 174.476562 Z " transform="matrix(1,0,0,1,-74,-13)"/>
<path style="fill:none;stroke-width:1;stroke-linecap:square;stroke-linejoin:miter;stroke:rgb(0%,0%,0%);stroke-opacity:1;stroke-miterlimit:3.25;" d="M 210.164062 148.613281 L 201.117188 148.613281 L 201.117188 175.753906 L 192.070312 175.753906 L 192.070312 139.566406 L 219.210938 139.566406 L 219.210938 157.660156 L 183.023438 157.660156 L 183.023438 166.707031 L 210.164062 166.707031 Z " transform="matrix(1,0,0,1,-74,-13)"/>
<path style="fill:none;stroke-width:1;stroke-linecap:square;stroke-linejoin:miter;stroke:rgb(0%,0%,0%);stroke-opacity:1;stroke-miterlimit:3.25;" d="M 271.09375 146.804688 L 271.09375 139.566406 L 263.855469 139.566406 L 263.855469 168.515625 L 242.144531 168.515625 L 242.144531 154.042969 L 271.09375 154.042969 L 271.09375 175.753906 L 234.90625 175.753906 L 234.90625 139.566406 L 256.617188 139.566406 L 256.617188 161.28125 L 249.382812 161.28125 L 249.382812 146.804688 Z " transform="matrix(1,0,0,1,-74,-13)"/>
<path style="fill:none;stroke-width:1;stroke-linecap:square;stroke-linejoin:miter;stroke:rgb(0%,0%,0%);stroke-opacity:1;stroke-miterlimit:3.25;" d="M 322.816406 146.449219 L 300.398438 146.449219 L 300.398438 173.355469 L 327.300781 173.355469 L 327.300781 141.96875 L 295.914062 141.96875 L 295.914062 168.871094 L 282.460938 168.871094 L 282.460938 155.417969 L 291.429688 155.417969 L 291.429688 164.386719 L 286.945312 164.386719 L 286.945312 159.902344 L 313.851562 159.902344 L 313.851562 155.417969 L 309.367188 155.417969 L 309.367188 164.386719 L 318.332031 164.386719 L 318.332031 150.933594 L 304.882812 150.933594 L 304.882812 168.871094 L 322.816406 168.871094 Z " transform="matrix(1,0,0,1,-74,-13)"/>
<path style="fill:none;stroke-width:1;stroke-linecap:square;stroke-linejoin:miter;stroke:rgb(0%,0%,0%);stroke-opacity:1;stroke-miterlimit:3.25;" d="M 377.746094 175.640625 L 377.746094 139.683594 L 341.777344 139.683594 L 341.777344 157.660156 L 335.78125 157.660156 L 335.78125 151.667969 L 371.753906 151.667969 L 371.753906 169.648438 L 353.765625 169.648438 L 353.765625 145.675781 L 359.761719 145.675781 L 359.761719 163.652344 L 365.757812 163.652344 L 365.757812 157.660156 L 347.769531 157.660156 L 347.769531 175.640625 Z " transform="matrix(1,0,0,1,-74,-13)"/>
<path style="fill:none;stroke-width:1;stroke-linecap:square;stroke-linejoin:miter;stroke:rgb(0%,0%,0%);stroke-opacity:1;stroke-miterlimit:3.25;" d="M 431.046875 157.660156 L 431.046875 166.621094 L 422.085938 166.621094 L 422.085938 139.738281 L 404.164062 139.738281 L 404.164062 175.582031 L 386.242188 175.582031 L 386.242188 148.699219 L 413.125 148.699219 L 413.125 166.621094 L 395.203125 166.621094 L 395.203125 157.660156 Z " transform="matrix(1,0,0,1,-74,-13)"/>
<path style="fill:none;stroke-width:1;stroke-linecap:square;stroke-linejoin:miter;stroke:rgb(0%,0%,0%);stroke-opacity:1;stroke-miterlimit:3.25;" d="M 110.796875 190.648438 L 110.796875 208.570312 L 74.953125 208.570312 L 74.953125 217.53125 L 83.914062 217.53125 L 83.914062 181.6875 L 101.835938 181.6875 L 101.835938 217.53125 L 119.757812 217.53125 L 119.757812 199.609375 L 92.875 199.609375 L 92.875 190.648438 Z " transform="matrix(1,0,0,1,-74,-13)"/>
<path style="fill:none;stroke-width:1;stroke-linecap:square;stroke-linejoin:miter;stroke:rgb(0%,0%,0%);stroke-opacity:1;stroke-miterlimit:3.25;" d="M 131.140625 187.546875 L 131.140625 217.703125 L 155.265625 217.703125 L 155.265625 205.640625 L 137.171875 205.640625 L 137.171875 193.578125 L 161.296875 193.578125 L 161.296875 187.546875 L 155.265625 187.546875 L 155.265625 199.609375 L 167.332031 199.609375 L 167.332031 181.515625 L 149.234375 181.515625 L 149.234375 211.671875 L 143.203125 211.671875 L 143.203125 187.546875 Z " transform="matrix(1,0,0,1,-74,-13)"/>
<path style="fill:none;stroke-width:1;stroke-linecap:square;stroke-linejoin:miter;stroke:rgb(0%,0%,0%);stroke-opacity:1;stroke-miterlimit:3.25;" d="M 223.519531 190.648438 L 223.519531 217.53125 L 196.636719 217.53125 L 196.636719 181.6875 L 205.597656 181.6875 L 205.597656 208.570312 L 214.558594 208.570312 L 214.558594 199.609375 L 178.714844 199.609375 L 178.714844 208.570312 L 187.675781 208.570312 L 187.675781 190.648438 Z " transform="matrix(1,0,0,1,-74,-13)"/>
<path style="fill:none;stroke-width:1;stroke-linecap:square;stroke-linejoin:miter;stroke:rgb(0%,0%,0%);stroke-opacity:1;stroke-miterlimit:3.25;" d="M 256.203125 186.820312 L 230.582031 186.820312 L 230.582031 212.398438 L 243.390625 212.398438 L 243.390625 199.609375 L 236.984375 199.609375 L 236.984375 206.003906 L 275.417969 206.003906 L 275.417969 186.820312 L 262.609375 186.820312 L 262.609375 199.609375 L 269.015625 199.609375 L 269.015625 193.214844 L 249.796875 193.214844 L 249.796875 212.398438 L 256.203125 212.398438 Z " transform="matrix(1,0,0,1,-74,-13)"/>
<path style="fill:none;stroke-width:1;stroke-linecap:square;stroke-linejoin:miter;stroke:rgb(0%,0%,0%);stroke-opacity:1;stroke-miterlimit:3.25;" d="M 284.617188 181.601562 L 284.617188 213.113281 L 325.144531 213.113281 L 325.144531 208.613281 L 320.644531 208.613281 L 320.644531 217.617188 L 307.132812 217.617188 L 307.132812 190.605469 L 293.625 190.605469 L 293.625 204.109375 L 302.628906 204.109375 L 302.628906 195.105469 L 298.128906 195.105469 L 298.128906 199.609375 L 311.636719 199.609375 L 311.636719 186.101562 L 289.121094 186.101562 L 289.121094 208.613281 L 316.140625 208.613281 L 316.140625 181.601562 Z " transform="matrix(1,0,0,1,-74,-13)"/>
<path style="fill:none;stroke-width:1;stroke-linecap:square;stroke-linejoin:miter;stroke:rgb(0%,0%,0%);stroke-opacity:1;stroke-miterlimit:3.25;" d="M 365.8125 181.515625 L 347.71875 181.515625 L 347.71875 217.703125 L 356.765625 217.703125 L 356.765625 199.609375 L 374.859375 199.609375 L 374.859375 190.5625 L 338.667969 190.5625 L 338.667969 208.65625 L 365.8125 208.65625 Z " transform="matrix(1,0,0,1,-74,-13)"/>
<path style="fill:none;stroke-width:1;stroke-linecap:square;stroke-linejoin:miter;stroke:rgb(0%,0%,0%);stroke-opacity:1;stroke-miterlimit:3.25;" d="M 430.175781 181.652344 L 430.175781 217.566406 L 408.644531 217.566406 L 408.644531 196.015625 L 415.824219 196.015625 L 415.824219 203.199219 L 394.292969 203.199219 L 394.292969 181.652344 L 387.117188 181.652344 L 387.117188 188.835938 L 423 188.835938 L 423 210.382812 L 401.46875 210.382812 L 401.46875 181.652344 Z " transform="matrix(1,0,0,1,-74,-13)"/>
<path style="fill:none;stroke-width:1;stroke-linecap:square;stroke-linejoin:miter;stroke:rgb(0%,0%,0%);stroke-opacity:1;stroke-miterlimit:3.25;" d="M 119.757812 250.515625 L 74.953125 250.515625 L 74.953125 259.476562 L 83.914062 259.476562 L 83.914062 223.632812 L 110.796875 223.632812 L 110.796875 259.476562 L 101.835938 259.476562 L 101.835938 232.59375 L 92.875 232.59375 L 92.875 241.554688 L 119.757812 241.554688 Z " transform="matrix(1,0,0,1,-74,-13)"/>
<path style="fill:none;stroke-width:1;stroke-linecap:square;stroke-linejoin:miter;stroke:rgb(0%,0%,0%);stroke-opacity:1;stroke-miterlimit:3.25;" d="M 142.058594 237.964844 L 142.058594 252.332031 L 156.410156 252.332031 L 156.410156 223.597656 L 134.882812 223.597656 L 134.882812 259.511719 L 163.589844 259.511719 L 163.589844 223.597656 L 170.765625 223.597656 L 170.765625 230.78125 L 127.707031 230.78125 L 127.707031 245.148438 L 149.234375 245.148438 L 149.234375 237.964844 Z " transform="matrix(1,0,0,1,-74,-13)"/>
<path style="fill:none;stroke-width:1;stroke-linecap:square;stroke-linejoin:miter;stroke:rgb(0%,0%,0%);stroke-opacity:1;stroke-miterlimit:3.25;" d="M 180.550781 223.5625 L 180.550781 254.410156 L 221.683594 254.410156 L 221.683594 249.269531 L 216.542969 249.269531 L 216.542969 259.550781 L 201.117188 259.550781 L 201.117188 233.84375 L 195.976562 233.84375 L 195.976562 244.125 L 190.835938 244.125 L 190.835938 238.984375 L 206.257812 238.984375 L 206.257812 228.703125 L 185.695312 228.703125 L 185.695312 249.269531 L 211.402344 249.269531 L 211.402344 223.5625 Z " transform="matrix(1,0,0,1,-74,-13)"/>
<path style="fill:none;stroke-width:1;stroke-linecap:square;stroke-linejoin:miter;stroke:rgb(0%,0%,0%);stroke-opacity:1;stroke-miterlimit:3.25;" d="M 239.429688 223.460938 L 271.09375 223.460938 L 271.09375 250.601562 L 243.953125 250.601562 L 243.953125 227.984375 L 266.570312 227.984375 L 266.570312 246.078125 L 248.476562 246.078125 L 248.476562 232.507812 L 262.046875 232.507812 L 262.046875 241.554688 L 253 241.554688 L 253 237.03125 L 257.523438 237.03125 L 257.523438 259.648438 L 262.046875 259.648438 L 262.046875 255.125 L 234.90625 255.125 L 234.90625 259.648438 L 239.429688 259.648438 Z " transform="matrix(1,0,0,1,-74,-13)"/>
<path style="fill:none;stroke-width:1;stroke-linecap:square;stroke-linejoin:miter;stroke:rgb(0%,0%,0%);stroke-opacity:1;stroke-miterlimit:3.25;" d="M 291.957031 223.460938 L 322.976562 223.460938 L 322.976562 249.3125 L 297.128906 249.3125 L 297.128906 228.632812 L 317.804688 228.632812 L 317.804688 238.972656 L 302.296875 238.972656 L 302.296875 244.140625 L 307.46875 244.140625 L 307.46875 233.800781 L 312.636719 233.800781 L 312.636719 259.648438 L 317.804688 259.648438 L 317.804688 254.480469 L 286.789062 254.480469 L 286.789062 259.648438 L 291.957031 259.648438 Z " transform="matrix(1,0,0,1,-74,-13)"/>
<path style="fill:none;stroke-width:1;stroke-linecap:square;stroke-linejoin:miter;stroke:rgb(0%,0%,0%);stroke-opacity:1;stroke-miterlimit:3.25;" d="M 371.710938 234.089844 L 371.710938 241.554688 L 334.34375 241.554688 L 334.34375 249.019531 L 349.289062 249.019531 L 349.289062 234.089844 L 341.816406 234.089844 L 341.816406 256.484375 L 356.765625 256.484375 L 356.765625 226.625 L 379.183594 226.625 L 379.183594 249.019531 L 364.238281 249.019531 L 364.238281 234.089844 Z " transform="matrix(1,0,0,1,-74,-13)"/>
<path style="fill:none;stroke-width:1;stroke-linecap:square;stroke-linejoin:miter;stroke:rgb(0%,0%,0%);stroke-opacity:1;stroke-miterlimit:3.25;" d="M 416.121094 226.625 L 431.066406 226.625 L 431.066406 256.484375 L 401.171875 256.484375 L 401.171875 234.089844 L 393.699219 234.089844 L 393.699219 249.019531 L 386.226562 249.019531 L 386.226562 241.554688 L 423.59375 241.554688 L 423.59375 234.089844 L 408.644531 234.089844 L 408.644531 249.019531 L 416.121094 249.019531 Z " transform="matrix(1,0,0,1,-74,-13)"/>
</g>
</svg>
