<?xml version="1.0" encoding="UTF-8" standalone="no"?>
<!-- Created with Inkscape (http://www.inkscape.org/) -->

<svg
   xmlns:dc="http://purl.org/dc/elements/1.1/"
   xmlns:cc="http://creativecommons.org/ns#"
   xmlns:rdf="http://www.w3.org/1999/02/22-rdf-syntax-ns#"
   xmlns:svg="http://www.w3.org/2000/svg"
   xmlns="http://www.w3.org/2000/svg"
   xmlns:sodipodi="http://sodipodi.sourceforge.net/DTD/sodipodi-0.dtd"
   xmlns:inkscape="http://www.inkscape.org/namespaces/inkscape"
   width="4in"
   height="0.75in"
   viewBox="0 0 360 67.500001"
   id="svg8771"
   version="1.1"
   inkscape:version="0.91 r13725"
   sodipodi:docname="not-associative.svg">
  <defs
     id="defs8773" />
  <sodipodi:namedview
     id="base"
     pagecolor="#ffffff"
     bordercolor="#666666"
     borderopacity="1.0"
     inkscape:pageopacity="0.0"
     inkscape:pageshadow="2"
     inkscape:zoom="0.35"
     inkscape:cx="375"
     inkscape:cy="520"
     inkscape:document-units="px"
     inkscape:current-layer="layer1"
     showgrid="true"
     showguides="false"
     inkscape:snap-smooth-nodes="true"
     inkscape:object-nodes="true"
     units="in">
    <inkscape:grid
       type="xygrid"
       id="grid9319" />
  </sodipodi:namedview>
  <metadata
     id="metadata8776">
    <rdf:RDF>
      <cc:Work
         rdf:about="">
        <dc:format>image/svg+xml</dc:format>
        <dc:type
           rdf:resource="http://purl.org/dc/dcmitype/StillImage" />
        <dc:title></dc:title>
      </cc:Work>
    </rdf:RDF>
  </metadata>
  <g
     inkscape:label="Layer 1"
     inkscape:groupmode="layer"
     id="layer1"
     transform="translate(0,-984.86215)">
    <g
       id="g14123"
       transform="translate(-72.500007,-1.397738)">
      <circle
         r="14.772727"
         cy="1023.6917"
         cx="98.75"
         id="path9321"
         style="color:#000000;clip-rule:nonzero;display:inline;overflow:visible;visibility:visible;opacity:1;isolation:auto;mix-blend-mode:normal;color-interpolation:sRGB;color-interpolation-filters:linearRGB;solid-color:#000000;solid-opacity:1;fill:none;fill-opacity:1;fill-rule:nonzero;stroke:#000000;stroke-width:1;stroke-linecap:butt;stroke-linejoin:miter;stroke-miterlimit:4;stroke-dasharray:none;stroke-dashoffset:0;stroke-opacity:1;marker:none;color-rendering:auto;image-rendering:auto;shape-rendering:auto;text-rendering:auto;enable-background:accumulate" />
      <circle
         style="color:#000000;clip-rule:nonzero;display:inline;overflow:visible;visibility:visible;opacity:1;isolation:auto;mix-blend-mode:normal;color-interpolation:sRGB;color-interpolation-filters:linearRGB;solid-color:#000000;solid-opacity:1;fill:none;fill-opacity:1;fill-rule:nonzero;stroke:#000000;stroke-width:1;stroke-linecap:butt;stroke-linejoin:miter;stroke-miterlimit:4;stroke-dasharray:none;stroke-dashoffset:0;stroke-opacity:1;marker:none;color-rendering:auto;image-rendering:auto;shape-rendering:auto;text-rendering:auto;enable-background:accumulate"
         id="circle9323"
         cx="120.9091"
         cy="1023.6917"
         r="14.772727" />
    </g>
    <path
       style="fill:none;fill-rule:evenodd;stroke:#000000;stroke-width:1px;stroke-linecap:butt;stroke-linejoin:miter;stroke-opacity:1"
       d="m 208.18184,1022.2941 c 0,-10.3409 -14.77273,-22.1593 -29.54546,-22.1593 -14.77273,0 -29.54545,11.8183 -29.54545,22.1593 0,10.3408 4.43183,14.7727 14.77272,14.7727 10.34091,0 29.54546,-6.6477 29.54546,-22.1593 0,-15.5113 0.73862,-29.54535 -14.77273,-29.54535 -15.51135,0 -14.77273,14.03405 -14.77273,29.54535 0,15.5116 19.20458,22.1593 29.54546,22.1593 10.34091,0 14.77273,-4.4319 14.77273,-14.7727 z"
       id="path18899"
       inkscape:connector-curvature="0"
       sodipodi:nodetypes="sssssssss" />
    <path
       style="fill:none;fill-rule:evenodd;stroke:#000000;stroke-width:1px;stroke-linecap:butt;stroke-linejoin:miter;stroke-opacity:1"
       d="m 120.90911,1037.0668 c 7.38636,0 14.77272,-7.3863 14.77272,-14.7727 0,-14.7729 -14.77272,-22.1593 -29.54545,-22.1593 -14.772732,0 -29.545459,7.3864 -29.545459,22.1593 0,7.3864 7.386363,14.7727 14.772727,14.7727 7.386371,0 29.545462,-7.3863 29.545462,-14.7727 0,-7.3866 -29.545462,-7.3866 -29.545462,-14.7729 0,-7.3863 0,-22.15905 14.772732,-22.15905 14.77273,0 14.77273,14.77275 14.77273,22.15905 0,7.3863 -29.545462,7.3863 -29.545462,14.7729 0,7.3864 22.159092,14.7727 29.545462,14.7727 z"
       id="path14039"
       inkscape:connector-curvature="0"
       sodipodi:nodetypes="sssssssssss" />
    <g
       id="g14065"
       transform="matrix(1.4772727,0,0,1.4772727,-168.52271,900.62254)">
      <path
         sodipodi:nodetypes="sssssssss"
         inkscape:connector-curvature="0"
         id="path18899-0"
         d="m 350,82.362205 c 0,-6.999996 -10,-15 -20,-15 -10,0 -22,8.000004 -22,15 0,6.999996 5.00001,10 12,10 7,0 20,-4.500005 20,-15 0,-10.499994 0.49999,-20 -10,-20 -10.49999,0 -10,9.500006 -10,20 0,10.499995 13.00002,15 20,15 7,0 10,-3.000004 10,-10 z"
         style="fill:none;fill-rule:evenodd;stroke:#000000;stroke-width:0.6769231px;stroke-linecap:butt;stroke-linejoin:miter;stroke-opacity:1" />
      <path
         sodipodi:nodetypes="sssssssssss"
         inkscape:connector-curvature="0"
         id="path14039-8"
         d="m 305,92.362205 c 5,0 12,-5 12,-10 0,-10 -12,-15 -22,-15 -10,0 -20,5 -20,15 0,5 5,10 10,10 5,0 20,-5 20,-10 0,-5 -20,-5 -20,-10 0,-5 0,-15 10,-15 10,0 10,10 10,15 0,5 -20,5 -20,10 0,5 15,10 20,10 z"
         style="fill:none;fill-rule:evenodd;stroke:#000000;stroke-width:0.6769231px;stroke-linecap:butt;stroke-linejoin:miter;stroke-opacity:1" />
    </g>
  </g>
</svg>
