<?xml version="1.0" encoding="UTF-8" standalone="no"?>
<!-- Created with Inkscape (http://www.inkscape.org/) -->

<svg
   xmlns:dc="http://purl.org/dc/elements/1.1/"
   xmlns:cc="http://creativecommons.org/ns#"
   xmlns:rdf="http://www.w3.org/1999/02/22-rdf-syntax-ns#"
   xmlns:svg="http://www.w3.org/2000/svg"
   xmlns="http://www.w3.org/2000/svg"
   xmlns:sodipodi="http://sodipodi.sourceforge.net/DTD/sodipodi-0.dtd"
   xmlns:inkscape="http://www.inkscape.org/namespaces/inkscape"
   width="4in"
   height="1in"
   viewBox="0 0 360 90.000002"
   id="svg8771"
   version="1.1"
   inkscape:version="0.91 r13725"
   sodipodi:docname="not-associative.svg">
  <defs
     id="defs8773" />
  <sodipodi:namedview
     id="base"
     pagecolor="#ffffff"
     bordercolor="#666666"
     borderopacity="1.0"
     inkscape:pageopacity="0.0"
     inkscape:pageshadow="2"
     inkscape:zoom="0.35"
     inkscape:cx="375"
     inkscape:cy="520"
     inkscape:document-units="px"
     inkscape:current-layer="layer1"
     showgrid="true"
     showguides="false"
     inkscape:snap-smooth-nodes="true"
     inkscape:object-nodes="true"
     units="in">
    <inkscape:grid
       type="xygrid"
       id="grid9319" />
  </sodipodi:namedview>
  <metadata
     id="metadata8776">
    <rdf:RDF>
      <cc:Work
         rdf:about="">
        <dc:format>image/svg+xml</dc:format>
        <dc:type
           rdf:resource="http://purl.org/dc/dcmitype/StillImage" />
        <dc:title></dc:title>
      </cc:Work>
    </rdf:RDF>
  </metadata>
  <g
     inkscape:label="Layer 1"
     inkscape:groupmode="layer"
     id="layer1"
     transform="translate(0,-962.36215)">
    <g
       id="g14069"
       transform="translate(-95,914.99994)">
      <circle
         r="10"
         cy="82.362206"
         cx="190"
         id="path9321"
         style="color:#000000;clip-rule:nonzero;display:inline;overflow:visible;visibility:visible;opacity:1;isolation:auto;mix-blend-mode:normal;color-interpolation:sRGB;color-interpolation-filters:linearRGB;solid-color:#000000;solid-opacity:1;fill:none;fill-opacity:1;fill-rule:nonzero;stroke:#000000;stroke-width:1;stroke-linecap:butt;stroke-linejoin:miter;stroke-miterlimit:4;stroke-dasharray:none;stroke-dashoffset:0;stroke-opacity:1;marker:none;color-rendering:auto;image-rendering:auto;shape-rendering:auto;text-rendering:auto;enable-background:accumulate" />
      <circle
         style="color:#000000;clip-rule:nonzero;display:inline;overflow:visible;visibility:visible;opacity:1;isolation:auto;mix-blend-mode:normal;color-interpolation:sRGB;color-interpolation-filters:linearRGB;solid-color:#000000;solid-opacity:1;fill:none;fill-opacity:1;fill-rule:nonzero;stroke:#000000;stroke-width:1;stroke-linecap:butt;stroke-linejoin:miter;stroke-miterlimit:4;stroke-dasharray:none;stroke-dashoffset:0;stroke-opacity:1;marker:none;color-rendering:auto;image-rendering:auto;shape-rendering:auto;text-rendering:auto;enable-background:accumulate"
         id="circle9323"
         cx="205"
         cy="82.362206"
         r="10" />
      <path
         sodipodi:nodetypes="sssssssss"
         inkscape:connector-curvature="0"
         id="path18899"
         d="m 265,82.362205 c 0,-6.999996 -10,-15 -20,-15 -10,0 -20,8.000004 -20,15 0,6.999996 3.00001,10 10,10 7,0 20,-4.500005 20,-15 0,-10.499994 0.49999,-20 -10,-20 -10.49999,0 -10,9.500006 -10,20 0,10.499995 13.00002,15 20,15 7,0 10,-3.000004 10,-10 z"
         style="fill:none;fill-rule:evenodd;stroke:#000000;stroke-width:1px;stroke-linecap:butt;stroke-linejoin:miter;stroke-opacity:1" />
      <path
         sodipodi:nodetypes="sssssssssss"
         inkscape:connector-curvature="0"
         id="path14039"
         d="m 160,92.362205 c 5,0 10,-5 10,-10 0,-10 -10,-15 -20,-15 -10,0 -20,5 -20,15 0,5 5,10 10,10 5,0 20,-5 20,-10 0,-5 -20,-5 -20,-10 0,-5 0,-15 10,-15 10,0 10,10 10,15 0,5 -20,5 -20,10 0,5 15,10 20,10 z"
         style="fill:none;fill-rule:evenodd;stroke:#000000;stroke-width:1px;stroke-linecap:butt;stroke-linejoin:miter;stroke-opacity:1" />
      <g
         transform="translate(10,-2.7559031e-7)"
         id="g14065">
        <path
           style="fill:none;fill-rule:evenodd;stroke:#000000;stroke-width:1px;stroke-linecap:butt;stroke-linejoin:miter;stroke-opacity:1"
           d="m 350,82.362205 c 0,-6.999996 -10,-15 -20,-15 -10,0 -22,8.000004 -22,15 0,6.999996 5.00001,10 12,10 7,0 20,-4.500005 20,-15 0,-10.499994 0.49999,-20 -10,-20 -10.49999,0 -10,9.500006 -10,20 0,10.499995 13.00002,15 20,15 7,0 10,-3.000004 10,-10 z"
           id="path18899-0"
           inkscape:connector-curvature="0"
           sodipodi:nodetypes="sssssssss" />
        <path
           style="fill:none;fill-rule:evenodd;stroke:#000000;stroke-width:1px;stroke-linecap:butt;stroke-linejoin:miter;stroke-opacity:1"
           d="m 305,92.362205 c 5,0 12,-5 12,-10 0,-10 -12,-15 -22,-15 -10,0 -20,5 -20,15 0,5 5,10 10,10 5,0 20,-5 20,-10 0,-5 -20,-5 -20,-10 0,-5 0,-15 10,-15 10,0 10,10 10,15 0,5 -20,5 -20,10 0,5 15,10 20,10 z"
           id="path14039-8"
           inkscape:connector-curvature="0"
           sodipodi:nodetypes="sssssssssss" />
      </g>
    </g>
  </g>
</svg>
