<?xml version="1.0" encoding="UTF-8" standalone="no"?>
<!-- Created with Inkscape (http://www.inkscape.org/) -->

<svg
   xmlns:dc="http://purl.org/dc/elements/1.1/"
   xmlns:cc="http://creativecommons.org/ns#"
   xmlns:rdf="http://www.w3.org/1999/02/22-rdf-syntax-ns#"
   xmlns:svg="http://www.w3.org/2000/svg"
   xmlns="http://www.w3.org/2000/svg"
   xmlns:sodipodi="http://sodipodi.sourceforge.net/DTD/sodipodi-0.dtd"
   xmlns:inkscape="http://www.inkscape.org/namespaces/inkscape"
   width="177.21568"
   height="181.81134"
   id="svg3041"
   version="1.1"
   inkscape:version="0.91 r13725"
   sodipodi:docname="PD.svg">
  <defs
     id="defs3043" />
  <sodipodi:namedview
     id="base"
     pagecolor="#ffffff"
     bordercolor="#666666"
     borderopacity="1.0"
     inkscape:pageopacity="0.0"
     inkscape:pageshadow="2"
     inkscape:zoom="4.2851072"
     inkscape:cx="90.537418"
     inkscape:cy="92.409415"
     inkscape:document-units="px"
     inkscape:current-layer="layer1"
     showgrid="false"
     inkscape:window-width="1762"
     inkscape:window-height="1147"
     inkscape:window-x="113"
     inkscape:window-y="0"
     inkscape:window-maximized="0"
     fit-margin-top="4"
     fit-margin-left="4"
     fit-margin-right="4"
     fit-margin-bottom="4" />
  <metadata
     id="metadata3046">
    <rdf:RDF>
      <cc:Work
         rdf:about="">
        <dc:format>image/svg+xml</dc:format>
        <dc:type
           rdf:resource="http://purl.org/dc/dcmitype/StillImage" />
        <dc:title></dc:title>
      </cc:Work>
    </rdf:RDF>
  </metadata>
  <g
     inkscape:label="Layer 1"
     inkscape:groupmode="layer"
     id="layer1"
     transform="translate(-170.84042,-461.48107)">
    <path
       sodipodi:type="arc"
       style="fill:#ffffff;stroke:#ffffff;stroke-width:0.5;stroke-miterlimit:4;stroke-dasharray:none"
       id="path3062"
       sodipodi:cx="526.79456"
       sodipodi:cy="525.56763"
       sodipodi:rx="32.829956"
       sodipodi:ry="27.779196"
       d="m 559.62406,525.71393 a 32.829956,27.779196 0 0 1 -32.95918,27.63268 32.829956,27.779196 0 0 1 -32.70017,-27.85213 32.829956,27.779196 0 0 1 32.87307,-27.70602 32.829956,27.779196 0 0 1 32.78673,27.77917"
       sodipodi:start="0.0052665474"
       sodipodi:end="6.2831853"
       sodipodi:open="true" />
    <path
       style="fill:none;fill-rule:evenodd;stroke:#000000;stroke-width:2.5;stroke-linecap:butt;stroke-linejoin:miter;stroke-miterlimit:4;stroke-dasharray:none;stroke-opacity:1"
       d="m 319.02218,546.38814 c -6.24781,-10.40716 -19.28896,-22.11922 -24.7162,-26.71873 -5.42723,-4.59952 -25.19119,-19.42813 -32.66648,-24.72815 -18.88054,-13.74057 -49.55768,-19.41993 -68.8479,-7.00968 -31.03774,22.63654 -14.70208,65.34258 3.03376,82.37833 8.86792,8.51787 18.14423,19.4861 32.52544,24.88269 l 15.48605,2.4467 c 8.92991,-0.39016 22.99024,-2.70924 33.90012,-7.72661 43.63952,-20.06951 66.04269,-60.90863 62.07546,-80.51141 -3.96723,-19.60278 -16.08614,-43.10996 -40.37239,-43.40614 -19.13604,-0.23337 -28.51445,13.22896 -35.6139,19.66112 l -12.37206,12.95183 c -14.43955,17.96921 -21.90728,38.79716 -20.15703,64.70083 3.50049,51.80734 16.56903,89.84607 79.57795,70.24329 38.04724,-16.06454 29.35582,-51.77907 16.84015,-74.809 z"
       id="path10703"
       inkscape:connector-curvature="0"
       sodipodi:nodetypes="csccsccszsccsccc" />
  </g>
</svg>
