<?xml version="1.0" encoding="UTF-8" standalone="no"?>
<!-- Created with Inkscape (http://www.inkscape.org/) -->

<svg
   xmlns:dc="http://purl.org/dc/elements/1.1/"
   xmlns:cc="http://creativecommons.org/ns#"
   xmlns:rdf="http://www.w3.org/1999/02/22-rdf-syntax-ns#"
   xmlns:svg="http://www.w3.org/2000/svg"
   xmlns="http://www.w3.org/2000/svg"
   xmlns:sodipodi="http://sodipodi.sourceforge.net/DTD/sodipodi-0.dtd"
   xmlns:inkscape="http://www.inkscape.org/namespaces/inkscape"
   width="383.88577"
   height="181.96739"
   id="svg3041"
   version="1.1"
   inkscape:version="0.91 r13725"
   sodipodi:docname="PD.svg">
  <defs
     id="defs3043" />
  <sodipodi:namedview
     id="base"
     pagecolor="#ffffff"
     bordercolor="#666666"
     borderopacity="1.0"
     inkscape:pageopacity="0.0"
     inkscape:pageshadow="2"
     inkscape:zoom="4.2851072"
     inkscape:cx="74.629884"
     inkscape:cy="89.903576"
     inkscape:document-units="px"
     inkscape:current-layer="layer1"
     showgrid="false"
     inkscape:window-width="1172"
     inkscape:window-height="1148"
     inkscape:window-x="91"
     inkscape:window-y="24"
     inkscape:window-maximized="0"
     fit-margin-top="0"
     fit-margin-left="0"
     fit-margin-right="0"
     fit-margin-bottom="0" />
  <metadata
     id="metadata3046">
    <rdf:RDF>
      <cc:Work
         rdf:about="">
        <dc:format>image/svg+xml</dc:format>
        <dc:type
           rdf:resource="http://purl.org/dc/dcmitype/StillImage" />
        <dc:title />
      </cc:Work>
    </rdf:RDF>
  </metadata>
  <g
     inkscape:label="Layer 1"
     inkscape:groupmode="layer"
     id="layer1"
     transform="translate(-175.98922,-458.81917)">
    <path
       sodipodi:type="arc"
       style="fill:#ffffff;stroke:#ffffff;stroke-width:0.5;stroke-miterlimit:4;stroke-dasharray:none"
       id="path3062"
       sodipodi:cx="526.79456"
       sodipodi:cy="525.56763"
       sodipodi:rx="32.829956"
       sodipodi:ry="27.779196"
       d="m 559.62406,525.71393 a 32.829956,27.779196 0 0 1 -32.95918,27.63268 32.829956,27.779196 0 0 1 -32.70017,-27.85213 32.829956,27.779196 0 0 1 32.87307,-27.70602 32.829956,27.779196 0 0 1 32.78673,27.77917"
       sodipodi:start="0.0052665474"
       sodipodi:end="6.2831853"
       sodipodi:open="true" />
    <path
       style="fill:none;fill-rule:evenodd;stroke:#000000;stroke-width:1;stroke-linecap:butt;stroke-linejoin:miter;stroke-opacity:1;stroke-miterlimit:4;stroke-dasharray:none"
       d="m 281.47083,521.53634 c -18.31117,-12.31156 -56.00793,-46.20655 -88.67923,-33.60476 -32.6713,12.60179 -7.23436,71.87684 3.03376,82.37833 10.26812,10.50149 44.57298,40.13902 88.2125,20.06951 43.63952,-20.06951 43.17279,-54.141 36.40516,-82.14497 -6.76763,-28.00397 -11.90169,-46.90664 -29.8709,-49.00694 -17.96921,-2.1003 -62.77556,52.27407 -59.27507,104.08141 3.5005,51.80734 4.66734,91.47963 67.67626,71.87685 76.09449,-32.12908 12.02078,-94.00917 -17.50248,-113.64943 z"
       id="path10703"
       inkscape:connector-curvature="0"
       sodipodi:nodetypes="czzzzzzcc" />
  </g>
</svg>
