<?xml version="1.0" encoding="UTF-8" standalone="no"?>
<!-- Created with Inkscape (http://www.inkscape.org/) -->

<svg
   xmlns:dc="http://purl.org/dc/elements/1.1/"
   xmlns:cc="http://creativecommons.org/ns#"
   xmlns:rdf="http://www.w3.org/1999/02/22-rdf-syntax-ns#"
   xmlns:svg="http://www.w3.org/2000/svg"
   xmlns="http://www.w3.org/2000/svg"
   xmlns:sodipodi="http://sodipodi.sourceforge.net/DTD/sodipodi-0.dtd"
   xmlns:inkscape="http://www.inkscape.org/namespaces/inkscape"
   width="414.25"
   height="210.75291"
   id="svg3007"
   version="1.1"
   inkscape:version="0.48.2 r9819"
   sodipodi:docname="PDLink.svg">
  <defs
     id="defs3009">
    <marker
       inkscape:stockid="Arrow1Lend"
       orient="auto"
       refY="0.0"
       refX="0.0"
       id="Arrow1Lend"
       style="overflow:visible;">
      <path
         id="path3763"
         d="M 0.0,0.0 L 5.0,-5.0 L -12.5,0.0 L 5.0,5.0 L 0.0,0.0 z "
         style="fill-rule:evenodd;stroke:#000000;stroke-width:1.0pt;marker-start:none;"
         transform="scale(0.8) rotate(180) translate(12.5,0)" />
    </marker>
    <marker
       inkscape:stockid="Arrow2Lend"
       orient="auto"
       refY="0.0"
       refX="0.0"
       id="Arrow2Lend"
       style="overflow:visible;">
      <path
         id="path3781"
         style="font-size:12.0;fill-rule:evenodd;stroke-width:0.62500000;stroke-linejoin:round;"
         d="M 8.7185878,4.0337352 L -2.2072895,0.016013256 L 8.7185884,-4.0017078 C 6.9730900,-1.6296469 6.9831476,1.6157441 8.7185878,4.0337352 z "
         transform="scale(1.1) rotate(180) translate(1,0)" />
    </marker>
  </defs>
  <sodipodi:namedview
     id="base"
     pagecolor="#ffffff"
     bordercolor="#666666"
     borderopacity="1.0"
     inkscape:pageopacity="0.0"
     inkscape:pageshadow="2"
     inkscape:zoom="2.1280827"
     inkscape:cx="38.091541"
     inkscape:cy="108.14417"
     inkscape:document-units="px"
     inkscape:current-layer="layer1"
     showgrid="false"
     fit-margin-top="0"
     fit-margin-left="0"
     fit-margin-right="0"
     fit-margin-bottom="0"
     inkscape:window-width="2560"
     inkscape:window-height="1308"
     inkscape:window-x="0"
     inkscape:window-y="0"
     inkscape:window-maximized="1" />
  <metadata
     id="metadata3012">
    <rdf:RDF>
      <cc:Work
         rdf:about="">
        <dc:format>image/svg+xml</dc:format>
        <dc:type
           rdf:resource="http://purl.org/dc/dcmitype/StillImage" />
        <dc:title />
      </cc:Work>
    </rdf:RDF>
  </metadata>
  <g
     inkscape:label="Layer 1"
     inkscape:groupmode="layer"
     id="layer1"
     transform="translate(-303.01656,-392.25543)">
    <g
       id="g3146"
       transform="translate(181.05824,-103.43191)">
      <path
         sodipodi:nodetypes="cssssssssssc"
         inkscape:connector-curvature="0"
         id="path3075"
         d="m 173.51015,626.13385 c 0,0 -4.46997,-1.70694 -9.57042,-4.62546 -5.10044,-2.91853 -11.84151,-7.42746 -18.40401,-13.78906 -6.5625,-6.36161 -12.94643,-14.5759 -17.33259,-24.90514 -4.38616,-10.32924 -6.77455,-22.77344 -5.34598,-37.59487 1.42857,-14.82143 8.32589,-22.13169 18.45982,-24.19085 10.13393,-2.05915 23.50446,1.13282 37.87946,7.31585 14.375,6.18304 29.75447,15.35715 43.90626,25.26228 3.53794,2.47628 7.15541,5.33308 10.73939,8.36766 3.58399,3.03458 7.13449,6.24695 10.53851,9.43438 3.40402,3.18743 6.66155,6.34992 9.6596,9.28475 2.99805,2.93483 6.62049,6.9047 8.98656,9.18148"
         style="fill:none;stroke:#000000;stroke-width:1px;stroke-linecap:butt;stroke-linejoin:miter;stroke-opacity:1" />
      <path
         sodipodi:nodetypes="cssssccssssssc"
         inkscape:connector-curvature="0"
         id="path3077"
         d="m 268.12763,594.98472 c 0,0 4.26077,5.48013 7.14023,11.00469 2.87946,5.52455 5.89286,13.11384 6.42857,21.37277 0.53572,8.25893 -1.40625,17.1875 -8.4375,25.39062 -7.03125,8.20313 -19.15178,15.68081 -38.97321,21.03795 -4.95536,1.33929 -12.37444,2.11217 -16.56982,2.37741 m -6.15619,0.22443 c -6.97823,-1.38253 -15.09765,-5.4534 -19.5731,-9.95675 -4.47545,-4.50335 -7.80692,-10.33203 -10.20926,-17.0159 -2.40235,-6.68388 -3.87556,-14.22294 -4.63449,-22.14704 -0.75893,-7.92411 -0.80357,-16.23326 -0.34877,-24.45731 0.4548,-8.22406 1.40904,-16.36301 2.64788,-23.94671 1.23884,-7.58371 2.76228,-14.61217 4.35547,-20.61524 1.5932,-6.00307 6.11328,-15.26646 7.63114,-18.7486"
         style="fill:none;stroke:#000000;stroke-width:1px;stroke-linecap:butt;stroke-linejoin:miter;stroke-opacity:1" />
      <path
         sodipodi:nodetypes="cssssssssccccccsc"
         inkscape:connector-curvature="0"
         id="path3079"
         d="m 195.53572,532.1836 c 0,0 50.89286,-91.96428 72.32143,18.03571 1.04142,5.34594 1.64506,10.33709 1.86123,14.9964 0.21618,4.65931 0.0449,8.98677 -0.46358,13.00534 -0.50846,4.01857 -1.35408,7.72824 -2.48656,11.15195 -1.13248,3.42371 -2.55183,6.56146 -4.20772,9.4362 -1.6559,2.87474 -3.54834,5.48646 -5.62704,7.85811 -2.0787,2.37165 -4.34365,4.50322 -6.74454,6.41767 -2.40089,1.91445 -4.93773,3.61176 -7.5602,5.11489 -2.62248,1.50313 -5.33059,2.81207 -8.07404,3.94976 m 0,0 c -5.4869,2.27539 -11.11513,3.86579 -16.48227,4.95475 m 0,0 c -2.68357,0.54448 -5.30186,0.9636 -7.80457,1.2803 m -7.11108,0.66578 c -4.44249,0.26961 -8.22144,0.22132 -10.93442,0.0387 -2.71297,-0.18267 -11.15836,-1.16167 -11.33693,-1.42953"
         style="fill:none;stroke:#000000;stroke-width:1px;stroke-linecap:butt;stroke-linejoin:miter;stroke-opacity:1" />
    </g>
    <path
       style="fill:none;stroke:#000000;stroke-width:2;stroke-linecap:butt;stroke-linejoin:miter;stroke-opacity:1;stroke-miterlimit:4;stroke-dasharray:none"
       d="m 432.37028,512.49342 c 1.61264,3.23059 9.00035,14.55019 12.15924,22.26884 1.40043,3.42191 3.50701,12.29505 4.59091,15.81369 m 2.0412,6.96722 c 0.74479,3.48769 1.129,5.14503 1.48487,8.48512 0.35588,3.34009 0.50483,6.57721 0.42197,9.65305 -0.0829,3.07583 -0.39755,5.99038 -0.96896,8.68531 -0.57142,2.69494 -1.39957,5.17025 -2.50935,7.36763 -1.10979,2.19738 -2.50121,4.11682 -4.19919,5.69999 -1.69797,1.58317 -3.70249,2.83008 -6.03847,3.68239 -24.71053,7.12735 -40.69844,-13.99822 -47.56552,-39.47482 -6.86709,-25.4766 -4.61335,-55.30424 7.15941,-65.58105 l 0,-10e-6 c 1.89404,-1.45209 3.85515,-2.36557 5.85844,-2.79876 2.00329,-0.43319 4.04875,-0.38608 6.11147,0.083 2.06272,0.46907 4.14271,1.3601 6.21505,2.61478 2.07234,1.25468 4.13704,2.87299 6.16918,4.79662 2.03215,1.92363 3.76651,4.42306 5.70863,6.89899"
       id="path2988"
       inkscape:connector-curvature="0"
       sodipodi:nodetypes="csccssssscsccssssc" />
    <path
       style="fill:none;stroke:#000000;stroke-width:1;stroke-linecap:butt;stroke-linejoin:miter;stroke-miterlimit:4;stroke-opacity:1;stroke-dasharray:3, 3;stroke-dashoffset:0;marker-end:url(#Arrow2Lend)"
       d="m 481.58105,499.159 c 0,0 -3.28934,17.85644 -39.00224,5.16897"
       id="path2987"
       inkscape:connector-curvature="0"
       sodipodi:nodetypes="cc" />
    <path
       style="fill:none;stroke:#000000;stroke-width:1;stroke-linecap:butt;stroke-linejoin:miter;stroke-miterlimit:4;stroke-opacity:1;stroke-dasharray:3, 3;stroke-dashoffset:0;marker-end:url(#Arrow2Lend)"
       d="m 329.33132,544.73993 c 0,0 24.90505,9.86804 41.35178,-14.09719"
       id="path4383"
       inkscape:connector-curvature="0"
       sodipodi:nodetypes="cc" />
    <path
       style="fill:none;stroke:#000000;stroke-width:1;stroke-linecap:butt;stroke-linejoin:miter;stroke-opacity:1;stroke-miterlimit:4;stroke-dasharray:3, 3;stroke-dashoffset:0;marker-end:url(#Arrow2Lend)"
       d="m 178.56449,152.4845 c -1.87963,0 -3.28935,-21.6157 -34.77309,-14.5671"
       id="path2993"
       inkscape:connector-curvature="0"
       transform="translate(303.01656,392.25543)" />
    <path
       style="fill:none;stroke:#000000;stroke-width:1;stroke-linecap:butt;stroke-linejoin:miter;stroke-miterlimit:4;stroke-opacity:1;stroke-dasharray:3, 3;stroke-dashoffset:0;marker-end:url(#Arrow2Lend)"
       d="m 57.798506,190.54693 c 0,0 -5.638879,-17.85645 23.965234,-25.84486"
       id="path3959"
       inkscape:connector-curvature="0"
       transform="translate(303.01656,392.25543)"
       sodipodi:nodetypes="cc" />
  </g>
</svg>
